<svg width="100" height="100" viewBox="0 0 100 100" fill="none" xmlns="http://www.w3.org/2000/svg">
<rect width="100" height="100" fill="url(#paint0_linear_820_23)"/>
<path d="M75.2 21H24.8C21.9357 21 19.1886 22.1458 17.1632 24.1852C15.1379 26.2247 14 28.9908 14 31.875V68.125C14 71.0092 15.1379 73.7753 17.1632 75.8148C19.1886 77.8542 21.9357 79 24.8 79H75.2C78.0643 79 80.8114 77.8542 82.8368 75.8148C84.8621 73.7753 86 71.0092 86 68.125V31.875C86 28.9908 84.8621 26.2247 82.8368 24.1852C80.8114 22.1458 78.0643 21 75.2 21ZM78.8 58.3375H68C65.804 58.3375 63.698 57.4591 62.1452 55.8955C60.5924 54.3319 59.72 52.2112 59.72 50C59.72 47.7888 60.5924 45.6681 62.1452 44.1045C63.698 42.5409 65.804 41.6625 68 41.6625H78.8V58.3375ZM78.8 35.5H68C64.1809 35.5 60.5182 37.0277 57.8177 39.747C55.1171 42.4662 53.6 46.1544 53.6 50C53.6 53.8456 55.1171 57.5338 57.8177 60.253C60.5182 62.9723 64.1809 64.5 68 64.5H78.8V68.125C78.8 69.0864 78.4207 70.0084 77.7456 70.6883C77.0705 71.3681 76.1548 71.75 75.2 71.75H24.8C23.8452 71.75 22.9295 71.3681 22.2544 70.6883C21.5793 70.0084 21.2 69.0864 21.2 68.125V31.875C21.2 30.9136 21.5793 29.9916 22.2544 29.3117C22.9295 28.6319 23.8452 28.25 24.8 28.25H75.2C76.1548 28.25 77.0705 28.6319 77.7456 29.3117C78.4207 29.9916 78.8 30.9136 78.8 31.875V35.5ZM64.4 50C64.4 50.717 64.6111 51.4178 65.0067 52.0139C65.4023 52.6101 65.9645 53.0747 66.6223 53.3491C67.2802 53.6234 68.004 53.6952 68.7023 53.5553C69.4007 53.4155 70.0421 53.0702 70.5456 52.5633C71.0491 52.0563 71.3919 51.4104 71.5308 50.7072C71.6697 50.004 71.5984 49.2752 71.326 48.6128C71.0535 47.9504 70.5921 47.3842 70.0001 46.9859C69.408 46.5876 68.712 46.375 68 46.375C67.0452 46.375 66.1295 46.7569 65.4544 47.4367C64.7793 48.1166 64.4 49.0386 64.4 50Z" fill="white"/>
<defs>
<linearGradient id="paint0_linear_820_23" x1="50" y1="0" x2="50" y2="100" gradientUnits="userSpaceOnUse">
<stop stop-color="#5856D6"/>
<stop offset="1" stop-color="#2E2D70"/>
</linearGradient>
</defs>
</svg>
