<svg width="50" height="50" viewBox="0 0 50 50" fill="none" xmlns="http://www.w3.org/2000/svg">
<path d="M50 0H0V50H50V0Z" fill="#231F2B"/>
<path d="M23 16V17.5765H14.037V24.6709H21.6032V26.2475H14.037V35H12V16H23Z" fill="white"/>
<path d="M29.6531 16V27.8477C29.6531 29.0324 29.9342 29.9445 30.4966 30.5839C31.0589 31.2234 31.8844 31.543 32.9728 31.543C34.0612 31.543 34.8957 31.2234 35.4762 30.5839C36.0566 29.9445 36.3469 29.0324 36.3469 27.8477V16H41V27.8194C41 29.5873 40.6372 31.0823 39.9116 32.3046C39.1859 33.5271 38.2063 34.4485 36.9728 35.0691C35.7573 35.6897 34.3968 36 32.8912 36C31.3855 36 30.034 35.6991 28.8367 35.0973C27.6576 34.4767 26.7233 33.5553 26.034 32.3329C25.3446 31.0917 25 29.5873 25 27.8194V16H29.6531Z" fill="#AB844D"/>
</svg>
