<svg width="64" height="64" viewBox="0 0 64 64" fill="none" xmlns="http://www.w3.org/2000/svg">
<path d="M41.9109 26.4197C41.3474 26.4197 40.8405 26.0978 40.5373 25.6229C39.7902 24.4527 38.8334 23.5465 37.6667 22.9042C36.2475 22.093 34.6066 21.6873 32.7439 21.6873C30.7039 21.6873 28.8855 22.1531 27.289 23.0845C25.6924 24.016 24.4359 25.338 23.5193 27.0507C22.6323 28.7634 22.1888 30.7465 22.1888 33C22.1888 35.2535 22.6323 37.2516 23.5193 38.9944C24.4359 40.707 25.6924 42.0291 27.289 42.9606C28.8855 43.892 30.7039 44.3577 32.7439 44.3577C35.4936 44.3577 37.7258 43.5765 39.4406 42.0141C40.776 40.7974 41.708 39.2436 42.2366 37.3527C42.4824 36.4731 41.7717 35.6592 40.8584 35.6592H32.5143C31.6859 35.6592 31.0143 34.9876 31.0143 34.1592V33.0577C31.0143 32.2293 31.6859 31.5577 32.5143 31.5577H46.5C47.3284 31.5577 48 32.2293 48 33.0577V35.569C47.6748 38.0028 46.8174 40.2413 45.4278 42.2845C44.0677 44.3277 42.279 45.9653 40.0615 47.1972C37.8736 48.3991 35.4344 49 32.7439 49C29.8464 49 27.2003 48.3239 24.8054 46.9718C22.4106 45.5897 20.5036 43.6817 19.0844 41.2479C17.6948 38.8141 17 36.0648 17 33C17 29.9352 17.6948 27.1859 19.0844 24.7521C20.5036 22.3183 22.4106 20.4254 24.8054 19.0732C27.2299 17.6911 29.876 17 32.7439 17C36.0258 17 38.938 17.8263 41.4807 19.4789C43.4565 20.7252 45.0136 22.3792 46.152 24.4409C46.6607 25.362 45.9386 26.4197 44.8864 26.4197H41.9109Z" fill="white"/>
<path d="M2 32.0587C2 31.2884 2.5916 30.6671 3.33316 30.4585C4.08367 30.2474 4.69373 29.9243 5.16333 29.4893C5.91444 28.8203 6.29 27.9422 6.29 26.855C6.29 25.8514 6.17444 24.0116 5.94333 21.3354C5.68333 18.8265 5.55333 16.8194 5.55333 15.3141C5.55333 13.3348 6.14556 11.7877 7.33 10.6726C8.54333 9.55753 10.1322 9 12.0967 9H13.5C14.3284 9 15 9.67157 15 10.5V11.6397C15 12.4681 14.3284 13.1397 13.5 13.1397H13.0933C12.1689 13.1397 11.4756 13.3488 11.0133 13.7669C10.58 14.1572 10.3633 14.7983 10.3633 15.6904C10.3633 16.3594 10.4067 17.2515 10.4933 18.3665C10.58 19.4816 10.6378 20.2761 10.6667 20.75C10.9267 23.3147 11.0567 25.4054 11.0567 27.0222C11.0567 28.444 10.6811 29.6287 9.93 30.5765C9.21427 31.5158 8.10133 32.1402 6.59118 32.4498C6.56736 32.4547 6.55 32.4757 6.55 32.5C6.55 32.5243 6.56736 32.5453 6.59118 32.5502C8.10133 32.8598 9.21427 33.4842 9.93 34.4235C10.6811 35.3713 11.0567 36.5561 11.0567 37.9778C11.0567 39.5946 10.9267 41.6854 10.6667 44.25C10.6378 44.7239 10.58 45.5184 10.4933 46.6335C10.4067 47.7485 10.3633 48.6406 10.3633 49.3096C10.3633 50.2017 10.58 50.8428 11.0133 51.2331C11.4756 51.6512 12.1689 51.8603 13.0933 51.8603H13.5C14.3284 51.8603 15 52.5319 15 53.3603V54.5C15 55.3284 14.3284 56 13.5 56H12.0967C10.1322 56 8.54333 55.4425 7.33 54.3274C6.14556 53.2123 5.55333 51.6652 5.55333 49.6859C5.55333 48.1806 5.68333 46.1735 5.94333 43.6646C6.17444 40.9884 6.29 39.1486 6.29 38.145C6.29 37.0578 5.91444 36.1797 5.16333 35.5107C4.69373 35.0757 4.08367 34.7526 3.33316 34.5415C2.5916 34.3329 2 33.7116 2 32.9413V32.0587Z" fill="white"/>
<path d="M63 32.9413C63 33.7116 62.4088 34.3338 61.6666 34.5401C60.9072 34.7512 60.2828 35.0747 59.7933 35.5107C59.0711 36.1797 58.71 37.0578 58.71 38.145C58.71 39.1486 58.8255 40.9884 59.0566 43.6646C59.3166 46.1735 59.4467 48.1806 59.4467 49.6859C59.4467 51.6652 58.84 53.2123 57.6267 54.3274C56.4422 55.4425 54.8677 56 52.9033 56H51.5C50.6716 56 50 55.3284 50 54.5V53.3603C50 52.5319 50.6716 51.8603 51.5 51.8603H51.9067C52.8311 51.8603 53.51 51.6512 53.9433 51.2331C54.4055 50.8428 54.6367 50.2017 54.6367 49.3096C54.6367 48.6406 54.5933 47.7485 54.5067 46.6335C54.42 45.5184 54.3622 44.7239 54.3333 44.25C54.0733 41.6854 53.9433 39.5946 53.9433 37.9778C53.9433 36.5561 54.3044 35.3713 55.0267 34.4235C55.771 33.4842 56.8984 32.8598 58.4088 32.5502C58.4326 32.5453 58.45 32.5243 58.45 32.5C58.45 32.4757 58.4326 32.4547 58.4088 32.4498C56.8984 32.1402 55.771 31.5158 55.0267 30.5765C54.3044 29.6287 53.9433 28.444 53.9433 27.0222C53.9433 25.4054 54.0733 23.3147 54.3333 20.75C54.3622 20.2761 54.42 19.4816 54.5067 18.3665C54.5933 17.2515 54.6367 16.3594 54.6367 15.6904C54.6367 14.7983 54.4055 14.1572 53.9433 13.7669C53.51 13.3488 52.8311 13.1397 51.9067 13.1397H51.5C50.6716 13.1397 50 12.4681 50 11.6397V10.5C50 9.67157 50.6716 9 51.5 9H52.9033C54.8677 9 56.4422 9.55753 57.6267 10.6726C58.84 11.7877 59.4467 13.3348 59.4467 15.3141C59.4467 16.8194 59.3166 18.8265 59.0566 21.3354C58.8255 24.0116 58.71 25.8514 58.71 26.855C58.71 27.9422 59.0711 28.8203 59.7933 29.4893C60.2828 29.9253 60.9072 30.2488 61.6666 30.4599C62.4088 30.6662 63 31.2884 63 32.0587V32.9413Z" fill="white"/>
</svg>
