<svg width="30" height="30" viewBox="0 0 30 30" fill="none" xmlns="http://www.w3.org/2000/svg">
<path d="M25 0H5.00167C3.67607 0.00395761 2.40592 0.532417 1.46874 1.46991C0.531552 2.40741 0.00351611 3.67774 0 5.00333V25C0.00483131 26.3249 0.533395 27.5941 1.47039 28.5308C2.40739 29.4675 3.67678 29.9956 5.00167 30H25C26.3246 29.9952 27.5936 29.4668 28.5302 28.5302C29.4668 27.5936 29.9952 26.3246 30 25V5.00333C29.996 3.67816 29.4681 2.40834 28.5314 1.47098C27.5946 0.533627 26.3252 0.00483375 25 0ZM22.2676 21.0713C22.0143 21.6711 21.6195 22.2043 21.113 22.6158C20.514 23.081 19.8321 23.4281 19.1036 23.6388C18.2872 23.8904 17.3142 24.0203 16.1879 24.0203H8.14895V6.51783H16.6511C18.2223 6.51783 19.4835 6.87271 20.4282 7.59413C21.3762 8.32056 21.851 9.39687 21.851 10.8564C21.851 11.7361 21.6345 12.4942 21.2029 13.1173C20.7714 13.7388 20.1533 14.2236 19.3519 14.5635V14.6201C20.4215 14.8451 21.2463 15.3499 21.7911 16.1396C22.3359 16.9277 22.6125 17.9207 22.6125 19.1203C22.6125 19.7951 22.4825 20.4332 22.2376 21.0313L22.2709 21.0663V21.0713H22.2676ZM18.7954 16.7577C18.2806 16.2879 17.5641 16.0596 16.6345 16.0596H11.2296V21.5178H16.6494C17.5725 21.5178 18.3006 21.2779 18.8121 20.7931C19.3252 20.3116 19.5851 19.6251 19.5851 18.7454C19.5768 17.8824 19.3252 17.2143 18.8121 16.7577H18.7887H18.7954ZM18.044 13.2273C18.5422 12.8091 18.7837 12.2059 18.7837 11.4212C18.7837 10.5448 18.5655 9.91836 18.1223 9.56181C17.6824 9.20527 17.046 9.01866 16.2129 9.01866H11.2129V13.847H16.2129C16.9394 13.8487 17.5625 13.6355 18.044 13.2273Z" fill="#161924"/>
</svg>
