<svg width="30" height="30" viewBox="0 0 30 30" fill="none" xmlns="http://www.w3.org/2000/svg">
<path fill-rule="evenodd" clip-rule="evenodd" d="M5.72949 6.66666C5.72949 3.84771 8.0147 1.5625 10.8337 1.5625H14.0625H15.9379H19.1666C21.9856 1.5625 24.2709 3.84769 24.2709 6.66666C24.2709 8.38696 23.4198 9.90848 22.1157 10.8332C23.4198 11.7579 24.2709 13.2794 24.2709 14.9996C24.2709 17.8187 21.9857 20.1039 19.1666 20.1039C17.9417 20.1039 16.8175 19.6724 15.9379 18.9531V20.1039V23.3334C15.9379 26.1524 13.6526 28.4376 10.8337 28.4376C8.01469 28.4376 5.72949 26.1524 5.72949 23.3334C5.72949 21.6129 6.58076 20.0912 7.88509 19.1666C6.58076 18.2419 5.72949 16.7202 5.72949 14.9996C5.72949 13.2794 6.58055 11.7579 7.8846 10.8332C6.58055 9.90849 5.72949 8.38696 5.72949 6.66666ZM19.1207 11.7708H19.1666C19.1786 11.7708 19.1906 11.7708 19.2026 11.7707C20.9695 11.79 22.3959 13.2283 22.3959 14.9996C22.3959 16.7831 20.9501 18.2289 19.1666 18.2289C17.4 18.2289 15.9645 16.81 15.9379 15.0495V14.9497C15.9643 13.2047 17.3751 11.7952 19.1207 11.7708ZM14.0629 11.7708H14.0625H10.8337L10.7977 11.7707C9.03083 11.79 7.60449 13.2283 7.60449 14.9996C7.60449 16.7831 9.05025 18.2289 10.8337 18.2289H14.0629V15.0624C14.0626 15.0415 14.0625 15.0206 14.0625 14.9996C14.0625 14.9787 14.0626 14.9578 14.0629 14.9369V11.7708ZM14.0625 3.4375V9.89551H10.8337L10.7975 9.89563C9.03075 9.87626 7.60449 8.43802 7.60449 6.66666C7.60449 4.88324 9.05024 3.4375 10.8337 3.4375H14.0625ZM19.2028 9.89563C20.9696 9.87626 22.3959 8.438 22.3959 6.66666C22.3959 4.88326 20.9501 3.4375 19.1666 3.4375H15.9379V9.89551V9.89583H19.1086C19.1279 9.89562 19.1473 9.89551 19.1666 9.89551C19.1787 9.89551 19.1907 9.89555 19.2028 9.89563ZM10.8337 20.1042C9.05024 20.1042 7.60449 21.55 7.60449 23.3334C7.60449 25.1169 9.05025 26.5626 10.8337 26.5626C12.6171 26.5626 14.0629 25.1169 14.0629 23.3334V20.1042H10.8337Z" fill="#161924"/>
</svg>
