<svg width="30" height="30" viewBox="0 0 30 30" fill="none" xmlns="http://www.w3.org/2000/svg">
<path d="M2.2409 0C1.96518 0 1.75974 0.224688 1.7842 0.499306L4.10869 26.5722C4.13315 26.8468 4.37047 27.1319 4.63627 27.2057L14.5002 29.9445C14.7659 30.0182 15.2006 30.0182 15.4664 29.9447L25.3603 27.2014C25.626 27.1277 25.8636 26.8426 25.8881 26.5681L28.2164 0.499306C28.241 0.224688 28.0354 0 27.7597 0H2.2409ZM23.2661 5.97975C23.2442 6.22469 23.2062 6.6499 23.1817 6.92452L23.1204 7.60861C23.0958 7.88313 23.0607 8.27575 23.0421 8.48099C23.0237 8.68633 23.0061 8.85427 23.0029 8.85427C22.9998 8.85427 22.7716 8.85427 22.4959 8.85427H15.5016C15.2259 8.85427 14.998 8.85427 14.995 8.85427C14.992 8.85427 14.7639 8.85427 14.4881 8.85427H10.8045C10.5288 8.85427 10.3233 9.07896 10.3478 9.35357L10.5627 11.7554C10.5871 12.0299 10.8329 12.2547 11.1086 12.2547H14.4882C14.764 12.2547 14.9921 12.2547 14.9951 12.2547C14.9981 12.2547 15.226 12.2547 15.5017 12.2547H21.3108C21.5865 12.2547 22.0132 12.2547 22.259 12.2547C22.5045 12.2547 22.6874 12.4551 22.6651 12.7C22.6428 12.945 22.6046 13.3703 22.5801 13.6448L21.8892 21.3879C21.8645 21.6625 21.8334 22.0133 21.8199 22.1675C21.8062 22.3216 21.5777 22.508 21.312 22.5817L15.4835 24.1978C15.2178 24.2714 14.997 24.3324 14.9929 24.3333C14.9888 24.3342 14.7681 24.2745 14.5023 24.2008L8.66752 22.5818C8.40182 22.5081 8.1644 22.223 8.13993 21.9484L7.76435 17.7329C7.73989 17.4583 7.94553 17.2336 8.22125 17.2336H8.75374C9.02946 17.2336 9.48064 17.2336 9.75636 17.2336H10.5504C10.8262 17.2336 11.0717 17.4583 11.0964 17.7329L11.2437 19.3831C11.2681 19.6577 11.5058 19.9412 11.7721 20.0131L14.5014 20.7501C14.7675 20.822 14.9863 20.8808 14.9875 20.8808C14.9887 20.8808 15.2073 20.8219 15.4735 20.75L18.2077 20.0112C18.4738 19.9393 18.7117 19.6557 18.7364 19.3812L19.0328 16.075C19.0575 15.8003 18.8521 15.5757 18.5763 15.5757H15.5017C15.226 15.5757 14.9981 15.5757 14.9951 15.5757C14.9921 15.5757 14.764 15.5757 14.4882 15.5757H8.07256C7.79684 15.5757 7.55129 15.3509 7.52683 15.0763L6.79933 6.92442C6.77486 6.6498 6.73686 6.22469 6.71491 5.97965C6.69315 5.73471 6.90079 5.53428 7.17651 5.53428H14.4882C14.764 5.53428 14.9921 5.53428 14.9951 5.53428C14.9981 5.53428 15.226 5.53428 15.5017 5.53428H22.8046C23.0802 5.53428 23.288 5.73471 23.2661 5.97975Z" fill="black"/>
</svg>
