<svg width="30" height="30" viewBox="0 0 30 30" fill="none" xmlns="http://www.w3.org/2000/svg">
<g clip-path="url(#clip0_736_558)">
<path fill-rule="evenodd" clip-rule="evenodd" d="M22.992 27.6482C20.3745 27.6482 18.6825 26.4003 17.8575 24.7683L20.1525 23.439C20.757 24.426 21.5415 25.1506 22.932 25.1506C24.099 25.1506 24.8445 24.5667 24.8445 23.7612C24.8445 22.5492 23.2275 22.0757 22.086 21.5867C20.052 20.7212 18.702 19.6337 18.702 17.3372C18.702 15.2237 20.313 13.6128 22.8315 13.6128C24.6225 13.6128 25.9125 14.2367 26.838 15.8672L24.6435 17.2771C24.1605 16.4116 23.637 16.0693 22.8315 16.0693C22.005 16.0693 21.4815 16.5931 21.4815 17.2771C21.4815 18.1231 22.005 18.4653 23.214 18.9888C25.7475 20.0748 27.6645 20.9279 27.6645 23.7209C27.6645 26.2589 25.671 27.6482 22.992 27.6482ZM16.5 23.3987C16.5 26.3192 14.7015 27.8628 12.204 27.8628C9.94798 27.8628 8.59649 27 7.93199 25.5H7.90952H7.89899H7.89299L10.1865 23.8967C10.629 24.6812 11.028 25.2378 11.994 25.2378C12.921 25.2378 13.5 24.7684 13.5 23.3599V13.5H16.5V23.3987ZM0 30H30V0H0V30Z" fill="#161924"/>
</g>
<defs>
<clipPath id="clip0_736_558">
<rect width="30" height="30" fill="white"/>
</clipPath>
</defs>
</svg>
