<svg width="30" height="30" viewBox="0 0 30 30" fill="none" xmlns="http://www.w3.org/2000/svg">
<g clip-path="url(#clip0_736_637)">
<path d="M27.9021 0.941162H14.3617C14.3617 4.31523 17.0974 7.05086 20.4714 7.05086H22.9652V9.46117C22.968 12.8277 25.6933 15.5568 29.0571 15.5662H29.058V2.1196C29.058 2.11773 29.058 2.11679 29.058 2.11491C29.058 1.47273 28.5424 0.951475 27.903 0.9421H27.9021V0.941162ZM21.2027 7.68554H7.66235C7.66329 11.0596 10.398 13.7943 13.772 13.7943H16.2658V16.2056C16.2686 19.5787 19.0024 22.3115 22.3755 22.3143V8.85929C22.3755 8.21148 21.8505 7.68648 21.2027 7.68648V7.68554ZM14.4977 14.429H0.941406C0.943281 17.804 3.67985 20.5387 7.05485 20.5387C7.06047 20.5387 7.0661 20.5387 7.07172 20.5387H9.56641V22.9481C9.56641 26.3212 12.3002 29.0559 15.6733 29.0578V15.6065C15.6733 14.9559 15.1464 14.429 14.4958 14.429H14.4977Z" fill="#161924"/>
</g>
<defs>
<clipPath id="clip0_736_637">
<rect width="30" height="30" fill="white"/>
</clipPath>
</defs>
</svg>
