<svg width="30" height="30" viewBox="0 0 30 30" fill="none" xmlns="http://www.w3.org/2000/svg">
<g clip-path="url(#clip0_736_570)">
<path d="M22.2679 28.1318C22.1567 28.1905 22.1629 28.2143 22.2742 28.158C22.3067 28.1441 22.3364 28.1241 22.3617 28.0993C22.3617 28.0793 22.3592 28.0818 22.2679 28.1318ZM22.4904 28.0143C22.4379 28.0555 22.4379 28.058 22.5017 28.0255C22.5367 28.008 22.5667 27.988 22.5667 27.9818C22.5667 27.958 22.5517 27.9643 22.4904 28.0143ZM22.6367 27.9255C22.5842 27.9668 22.5842 27.9693 22.6479 27.9368C22.6829 27.9193 22.7129 27.8993 22.7129 27.893C22.7129 27.8693 22.6979 27.8755 22.6367 27.9255ZM22.7829 27.838C22.7304 27.8793 22.7304 27.8818 22.7942 27.8493C22.8292 27.8318 22.8592 27.8118 22.8592 27.8055C22.8592 27.7818 22.8442 27.788 22.7829 27.838ZM22.9854 27.7068C22.8829 27.7718 22.8504 27.8155 22.9417 27.7655C23.0067 27.728 23.1117 27.648 23.0942 27.6455C23.0558 27.662 23.0194 27.6825 22.9854 27.7068ZM14.0192 0.0117844C13.9542 0.0180344 13.7492 0.0380344 13.5642 0.0530344C9.30418 0.436785 5.31293 2.73554 2.78543 6.26929C1.38813 8.20885 0.479888 10.4572 0.13793 12.823C0.0179297 13.6468 0.00292969 13.8905 0.00292969 15.008C0.00292969 16.1255 0.0179297 16.368 0.13793 17.193C0.952929 22.8255 4.96168 27.558 10.3979 29.3118C11.3717 29.6255 12.3979 29.8393 13.5642 29.968C14.0192 30.018 15.9829 30.018 16.4379 29.968C18.4517 29.7455 20.1592 29.2468 21.8417 28.388C22.0992 28.2555 22.1492 28.2205 22.1142 28.1918C21.2923 27.1059 20.4781 26.0142 19.6717 24.9168L17.2729 21.6768L14.2679 17.2293C13.2688 15.7411 12.26 14.2594 11.2417 12.7843C11.2304 12.7818 11.2179 14.758 11.2129 17.1705C11.2042 21.3955 11.2017 21.5655 11.1479 21.6655C11.0969 21.7824 11.0055 21.8769 10.8904 21.9318C10.7967 21.9793 10.7142 21.988 10.2717 21.988H9.76418L9.62918 21.903C9.54589 21.8505 9.47813 21.7768 9.43293 21.6893L9.37168 21.5568L9.37793 15.678L9.38668 9.79679L9.47793 9.68304C9.53924 9.61101 9.61289 9.55048 9.69543 9.50429C9.81543 9.44554 9.86293 9.43929 10.3704 9.43929C10.9692 9.43929 11.0679 9.46304 11.2242 9.63304C12.4406 11.4433 13.6469 13.2605 14.8429 15.0843C16.7904 18.0368 19.4517 22.068 20.7604 24.048L23.1354 27.6455L23.2554 27.5668C24.3982 26.8066 25.4345 25.8974 26.3367 24.863C28.2266 22.7001 29.4523 20.0378 29.8667 17.1955C29.9867 16.3718 30.0017 16.128 30.0017 15.0105C30.0017 13.893 29.9867 13.6505 29.8667 12.8255C29.0517 7.19304 25.0429 2.46054 19.6067 0.706785C18.5908 0.383344 17.5445 0.164295 16.4842 0.0530344C16.2029 0.0242844 14.2642 -0.00821559 14.0217 0.0155344L14.0192 0.0117844ZM20.1592 9.08429C20.2291 9.11942 20.2913 9.16814 20.3422 9.22759C20.393 9.28704 20.4315 9.35603 20.4554 9.43054C20.4792 9.50679 20.4842 11.1368 20.4792 14.8105L20.4704 20.083L19.5404 18.658L18.6079 17.233V13.4005C18.6079 10.923 18.6192 9.53054 18.6367 9.46304C18.6579 9.38513 18.6945 9.31226 18.7443 9.24872C18.7941 9.18517 18.8561 9.13224 18.9267 9.09304C19.0467 9.03179 19.0904 9.02554 19.5517 9.02554C19.9854 9.02554 20.0617 9.03179 20.1592 9.08429Z" fill="#161924"/>
</g>
<defs>
<clipPath id="clip0_736_570">
<rect width="30" height="30" fill="white"/>
</clipPath>
</defs>
</svg>
