<svg width="30" height="30" viewBox="0 0 30 30" fill="none" xmlns="http://www.w3.org/2000/svg">
<path fill-rule="evenodd" clip-rule="evenodd" d="M1 1V30H30V1H1ZM27.6931 27.6936H3.30588V3.30642H27.6931V27.6936ZM14.8099 10.0107C14.0663 9.36595 12.9577 9 11.405 9C9.8672 9 8 9.04951 8 9.04951V21H10.496V17.1597C10.496 17.1597 10.9328 17.1543 11.405 17.1349C13.1144 17.0628 14.1156 16.544 14.9752 15.6668C15.6362 14.9876 16 14.02 16 12.8393C16 11.6585 15.5203 10.6199 14.8099 10.0107ZM11.0834 15.0443H11.0834H11.0833C10.8484 15.0486 10.701 15.0514 10.495 15.0318V10.9051C10.495 10.9051 11.024 10.8868 11.537 10.9051C12.8225 10.9525 13.504 11.863 13.504 12.9727C13.504 14.2084 12.6777 15.0242 11.3384 15.0404C11.2415 15.0414 11.158 15.0429 11.0834 15.0443ZM18.8553 14.5521C18.8553 14.9573 19.2277 15.1683 20.4007 15.5382L20.3995 15.5392C22.218 16.1024 22.9802 16.9296 23 18.1973C23 19.7996 21.6134 21.0736 18.8553 20.9967C17.9087 20.9707 16.8606 20.6372 16.1369 20.2859V18.3667C16.6843 18.6649 17.9753 19.1128 18.8553 19.1128C19.7552 19.1128 20.1264 18.8312 20.1264 18.3906C20.1264 17.95 19.8334 17.4876 18.7188 17.153C16.7427 16.5545 15.9805 15.8375 16.0004 14.8347C16.0004 13.2147 17.5259 12 19.8918 12C21.0064 12 21.897 12.3242 22.4829 12.5881V14.5323C22.0522 14.3204 20.8104 13.8486 19.9898 13.8486C19.2662 13.8486 18.8553 14.1125 18.8553 14.5521Z" fill="#161924"/>
</svg>
