<svg width="30" height="30" viewBox="0 0 30 30" fill="none" xmlns="http://www.w3.org/2000/svg">
<g clip-path="url(#clip0_736_620)">
<path d="M21.4118 0C20.2446 0.0103125 19.0877 0.17625 17.9646 0.5025L17.8868 0.527812C17.1827 0.405 16.4655 0.3375 15.753 0.3225C14.2783 0.297187 13.0127 0.653437 11.9927 1.24969C10.9868 0.903749 8.90176 0.297187 6.70426 0.42C5.17707 0.5025 3.50645 0.966562 2.2652 2.27531C1.0352 3.57937 0.381758 5.60062 0.517696 8.35499C0.556133 9.11155 0.771758 10.3462 1.1327 11.9522C1.48895 13.5544 1.99238 15.4294 2.62238 17.1431C3.25238 18.8522 3.93957 20.3897 5.01488 21.434C5.55113 21.9562 6.29363 22.4015 7.16739 22.3631C7.77864 22.3378 8.32989 22.0697 8.80895 21.674C9.04239 21.9815 9.2927 22.1128 9.51676 22.2356C9.80551 22.3922 10.0783 22.499 10.3671 22.5684C10.8846 22.6997 11.7686 22.8712 12.8036 22.695C13.1552 22.6359 13.5265 22.5197 13.8977 22.3584C13.9127 22.7681 13.9277 23.1731 13.9418 23.5837C13.9952 24.8775 14.0308 26.0737 14.4152 27.1237C14.479 27.2953 14.6505 28.1737 15.3236 28.9547C16.0024 29.7356 17.3196 30.2193 18.829 29.8968C19.8893 29.6718 21.2411 29.2622 22.1402 27.9834C23.029 26.7234 23.4293 24.9122 23.508 21.9722C23.5268 21.8109 23.5521 21.6797 23.5755 21.5522L23.7855 21.5719H23.8108C24.9433 21.6206 26.1743 21.4594 27.2046 20.9803C28.1121 20.5603 28.8011 20.1356 29.3036 19.379C29.4265 19.1925 29.5671 18.9637 29.6027 18.5728C29.6411 18.1875 29.4161 17.5762 29.0449 17.294C28.3033 16.7278 27.8346 16.9425 27.3311 17.0503C26.839 17.1581 26.3346 17.2153 25.8321 17.2303C27.2768 14.7994 28.3118 12.2119 28.9033 9.9253C29.2549 8.57249 29.4508 7.32749 29.4649 6.23906C29.4846 5.15062 29.3927 4.18875 28.7421 3.35437C26.7011 0.751874 23.8343 0.028125 21.618 0.0046875C21.5496 0.0046875 21.4821 0.0046875 21.4127 0.0046875L21.4118 0ZM21.3527 0.801562C23.448 0.781874 26.1274 1.36781 28.0511 3.82781C28.4861 4.38 28.6136 5.18531 28.5986 6.18187C28.5836 7.17843 28.399 8.36437 28.0615 9.66843C27.4127 12.1987 26.1761 15.1369 24.4436 17.7797C24.5027 17.8237 24.5702 17.8622 24.6386 17.8875C24.9996 18.0384 25.8246 18.165 27.4746 17.8284C27.8899 17.7394 28.1936 17.6822 28.5105 17.9212C28.6671 18.0525 28.7496 18.2484 28.7393 18.4537C28.7205 18.6047 28.6671 18.7509 28.5733 18.8737C28.2555 19.3509 27.6274 19.8065 26.8211 20.1825C26.1086 20.5134 25.0821 20.685 24.1802 20.6953C23.7218 20.7 23.3018 20.6653 22.9436 20.5528L22.9249 20.549C22.7871 21.8719 22.4711 24.4894 22.2649 25.68C22.0999 26.6409 21.8111 27.4087 21.2599 27.9797C20.7077 28.5562 19.9315 28.8975 18.8815 29.1225C17.583 29.4009 16.6399 29.1028 16.0305 28.59C15.4211 28.0772 15.1418 27.3937 14.9758 26.9784C14.8596 26.6906 14.8005 26.3194 14.7424 25.8206C14.6833 25.3228 14.6449 24.7172 14.6149 24.029C14.5765 22.979 14.5615 21.929 14.5765 20.8744C14.0355 21.3731 13.3615 21.6994 12.6377 21.8269C11.7743 21.9731 11.0074 21.8269 10.5489 21.7144C10.3239 21.6553 10.1036 21.5728 9.89926 21.4603C9.68457 21.3478 9.48395 21.2212 9.34801 20.9662C9.26926 20.82 9.24582 20.6503 9.27957 20.489C9.31801 20.3231 9.41551 20.1815 9.54864 20.0737C9.79707 19.8722 10.1252 19.7615 10.6174 19.6584C11.5164 19.4719 11.8333 19.3462 12.0236 19.1934C12.1849 19.0669 12.3715 18.8034 12.6921 18.4172C12.6921 18.4031 12.6921 18.3834 12.6874 18.3684C12.1071 18.3497 11.5399 18.1987 11.0271 17.9194C10.8424 18.1144 9.87957 19.1306 8.71332 20.5369C8.22489 21.1219 7.68301 21.4594 7.10739 21.4847C6.53645 21.5081 6.01707 21.2212 5.57832 20.7956C4.69988 19.9406 3.99582 18.4706 3.38551 16.8103C2.7752 15.15 2.28207 13.3003 1.92582 11.7281C1.57426 10.1503 1.36426 8.88093 1.33426 8.27062C1.20301 5.66812 1.81332 3.91593 2.8577 2.80687C3.90207 1.69781 5.33363 1.28344 6.73051 1.20094C9.23551 1.05937 11.6177 1.93312 12.0968 2.11875C13.0239 1.48875 14.2202 1.09875 15.7146 1.12219C16.4233 1.1325 17.1255 1.22437 17.8146 1.39594L17.8399 1.38094C18.1427 1.27875 18.4502 1.18594 18.7624 1.11844C19.6127 0.916874 20.4808 0.814687 21.3499 0.800624L21.3527 0.801562ZM21.543 1.63594H21.3583C20.6458 1.64437 19.9268 1.72875 19.2293 1.87969C20.7865 2.56875 21.963 3.62718 22.7927 4.69218C23.3693 5.42437 23.8427 6.22968 24.2036 7.08937C24.3461 7.42218 24.439 7.69968 24.4877 7.91437C24.5168 8.02218 24.5318 8.11405 24.5411 8.20687C24.5411 8.25562 24.5458 8.3053 24.5215 8.3878C24.5215 8.39249 24.5168 8.40281 24.5168 8.40749C24.5571 9.50155 24.2833 10.2422 24.2477 11.2875C24.2243 12.045 24.4193 12.9337 24.468 13.905C24.5121 14.8172 24.4005 15.8184 23.809 16.8047C23.8577 16.8637 23.9018 16.9219 23.9505 16.9856C25.518 14.5144 26.6505 11.7853 27.2515 9.45562C27.574 8.20031 27.7436 7.06312 27.7586 6.16593C27.7736 5.26687 27.6077 4.6125 27.3921 4.33968C25.7121 2.19562 23.4424 1.64812 21.5421 1.635L21.543 1.63594ZM15.5515 1.9575C14.0777 1.96219 13.0174 2.4075 12.213 3.07593C11.3814 3.76968 10.8255 4.71187 10.4646 5.68312C10.0296 6.83062 9.87864 7.94343 9.81957 8.70093L9.83926 8.69062C10.2846 8.44218 10.8696 8.18812 11.4996 8.04656C12.1249 7.89937 12.8036 7.85531 13.413 8.09531C14.029 8.32874 14.5315 8.8903 14.7171 9.73499C15.5974 13.8075 14.4443 15.3215 14.0196 16.4634C13.8583 16.8787 13.7168 17.2987 13.6043 17.7281C13.6577 17.7178 13.7121 17.7028 13.7655 17.6981C14.0683 17.6747 14.3018 17.7722 14.4396 17.8303C14.8699 18.0103 15.1624 18.3815 15.3236 18.8062C15.3621 18.9187 15.3911 19.035 15.4108 19.1625C15.4258 19.2112 15.4361 19.2647 15.4361 19.319C15.3874 20.8762 15.3911 22.4344 15.4502 23.9915C15.4802 24.6656 15.5243 25.2562 15.5777 25.725C15.6311 26.189 15.7043 26.5453 15.754 26.6672C15.9143 27.0675 16.1486 27.5897 16.5743 27.9459C16.9943 28.3031 17.599 28.5375 18.708 28.3031C19.669 28.0931 20.2605 27.809 20.6552 27.3994C21.0518 26.984 21.2852 26.4131 21.4361 25.5394C21.6658 24.2259 22.1196 20.4169 22.174 19.7044C22.1505 19.1615 22.2274 18.7472 22.4036 18.4294C22.579 18.1069 22.8527 17.9072 23.0927 17.7994C23.209 17.7459 23.3215 17.7122 23.4143 17.6822C23.3168 17.5462 23.2146 17.4094 23.1115 17.2772C22.7702 16.8619 22.4861 16.3987 22.2761 15.9056C22.1786 15.6994 22.0708 15.494 21.9536 15.299C21.7886 15.0019 21.5786 14.625 21.3583 14.2003C20.9186 13.3603 20.4405 12.3356 20.1911 11.3391C19.9427 10.3425 19.909 9.31312 20.5436 8.59031C21.1052 7.94531 22.0961 7.67812 23.5746 7.82906C23.5305 7.69687 23.5071 7.58437 23.433 7.41374C23.0965 6.62249 22.6568 5.87999 22.129 5.20593C20.8736 3.6 18.8374 2.00719 15.6986 1.95375L15.5515 1.9575ZM7.25176 2.02125C7.0952 2.02125 6.93395 2.02594 6.77832 2.03625C5.51363 2.11031 4.32207 2.475 3.46707 3.37875C2.61301 4.28718 2.05238 5.76656 2.17332 8.22281C2.19863 8.69156 2.39832 9.98999 2.74426 11.5378C3.09207 13.0866 3.58426 14.9081 4.17582 16.5187C4.76551 18.1247 5.47988 19.5262 6.16332 20.19C6.50457 20.5172 6.80176 20.654 7.07082 20.6447C7.33989 20.6297 7.66707 20.4731 8.06739 19.995C8.79489 19.1165 9.5477 18.2662 10.3286 17.4365C9.20457 16.455 8.65332 14.9719 8.87364 13.4962C9.0002 12.5737 9.01989 11.7084 9.0002 11.025C8.98614 10.3612 8.94114 9.92249 8.94114 9.64405C8.94114 9.63374 8.94114 9.62905 8.94114 9.61874V9.61405L8.93645 9.60562C8.93645 8.16468 9.19145 6.73968 9.67895 5.38687C10.0305 4.45312 10.5489 3.51187 11.3289 2.74406C10.563 2.49 9.19989 2.11031 7.72614 2.03625C7.56957 2.02594 7.40739 2.02125 7.25176 2.02125ZM22.7486 8.62218C21.9002 8.63718 21.4258 8.85749 21.1727 9.13968C20.8202 9.54562 20.7865 10.2581 21.0068 11.1375C21.2252 12.0159 21.6808 12.9975 22.1055 13.814C22.3155 14.2237 22.5208 14.5903 22.6858 14.8875C22.8574 15.1903 22.9793 15.4003 23.0524 15.5859C23.1208 15.7519 23.1996 15.8981 23.2774 16.035C23.6046 15.3412 23.6636 14.6625 23.629 13.95C23.5849 13.0716 23.3805 12.1725 23.4143 11.265C23.449 10.2 23.659 9.50624 23.674 8.68593C23.3702 8.64749 23.058 8.62218 22.7505 8.62218H22.7486ZM12.4568 8.7703C12.198 8.7703 11.9393 8.80406 11.6852 8.86312C11.1818 8.98593 10.6989 9.17062 10.2443 9.42468C10.0933 9.50718 9.94707 9.60093 9.8102 9.70874L9.7802 9.73218C9.79051 9.91874 9.82426 10.3575 9.83926 11.0119C9.85426 11.7244 9.83926 12.6319 9.70332 13.6144C9.40051 15.7528 10.953 17.5209 12.7746 17.5256C12.8824 17.0859 13.0568 16.6406 13.233 16.1728C13.7402 14.805 14.7368 13.8094 13.8968 9.91312C13.7608 9.27843 13.4871 9.01968 13.1102 8.87343C12.9002 8.79937 12.6818 8.76562 12.4568 8.77124V8.7703ZM22.354 9.02343H22.4177C22.4955 9.02812 22.5743 9.03374 22.6418 9.05249C22.7055 9.06749 22.7646 9.08718 22.8133 9.12093C22.8621 9.14999 22.8958 9.19874 22.9061 9.25687V9.26718C22.9061 9.32624 22.8911 9.38437 22.8621 9.43874C22.8236 9.50624 22.7796 9.56999 22.7261 9.62343C22.5986 9.76499 22.4271 9.85874 22.2424 9.88687C22.0615 9.91218 21.8815 9.86343 21.7296 9.7603C21.6705 9.7153 21.6124 9.66655 21.5683 9.61312C21.5243 9.56905 21.4999 9.51093 21.4896 9.45187C21.4858 9.39468 21.4999 9.33562 21.5383 9.29155C21.5833 9.24655 21.6321 9.20812 21.6855 9.17905C21.8065 9.11062 21.9677 9.06187 22.1543 9.03655C22.2218 9.02812 22.2902 9.02249 22.354 9.01781V9.02343ZM12.5777 9.23343C12.6414 9.23343 12.7155 9.23812 12.7839 9.24749C12.9789 9.27749 13.1449 9.32624 13.2761 9.40405C13.3399 9.43405 13.399 9.4828 13.4421 9.53624C13.4908 9.5953 13.5143 9.66749 13.5105 9.74624C13.4955 9.81843 13.4655 9.8878 13.4168 9.94124C13.3633 10.005 13.3052 10.0584 13.2368 10.1025C13.0755 10.2197 12.8758 10.2684 12.6752 10.2441C12.4736 10.2103 12.2889 10.1128 12.153 9.96187C12.094 9.89812 12.0452 9.82968 12.0058 9.75655C11.9618 9.68812 11.943 9.6103 11.9524 9.53155C11.9721 9.4003 12.0846 9.32624 12.1924 9.2878C12.3152 9.24749 12.4465 9.23437 12.5777 9.23905V9.23343ZM23.9018 18.4125H23.8971C23.7171 18.4809 23.5661 18.5062 23.4386 18.5653C23.3074 18.614 23.2033 18.7115 23.1415 18.8325C23.058 18.975 22.9952 19.229 23.014 19.6622C23.0674 19.7025 23.1311 19.7306 23.2005 19.7512C23.4105 19.815 23.7715 19.859 24.1718 19.8534C24.9677 19.8431 25.9493 19.6584 26.4715 19.4137C26.8961 19.2187 27.2965 18.9553 27.648 18.6478C25.9052 19.004 24.9246 18.9112 24.318 18.6628C24.1718 18.599 24.0293 18.5156 23.9018 18.4125ZM13.863 18.5297H13.8377C13.7702 18.5344 13.6765 18.5597 13.4861 18.765C13.0511 19.2525 12.9002 19.56 12.544 19.844C12.183 20.1319 11.7189 20.2837 10.7861 20.474C10.4936 20.5331 10.3221 20.6006 10.2096 20.654C10.2433 20.684 10.2433 20.6944 10.2968 20.7178C10.4346 20.7965 10.6089 20.8603 10.7514 20.8987C11.1518 20.9962 11.8052 21.1134 12.4943 20.9962C13.1777 20.879 13.8902 20.5509 14.5015 19.6978C14.6093 19.5515 14.6177 19.3312 14.5305 19.0969C14.4433 18.8681 14.2521 18.6628 14.1208 18.6094C14.0374 18.569 13.9493 18.5456 13.8621 18.5306L13.863 18.5297Z" fill="#161924"/>
</g>
<defs>
<clipPath id="clip0_736_620">
<rect width="30" height="30" fill="white"/>
</clipPath>
</defs>
</svg>
