<svg width="30" height="30" viewBox="0 0 30 30" fill="none" xmlns="http://www.w3.org/2000/svg">
<g clip-path="url(#clip0_736_629)">
<path d="M27.2243 22.7921L16.936 0.943476C16.6756 0.395684 16.1358 0.0347674 15.5301 0.00342134C14.9229 -0.0372577 14.3436 0.263094 14.0269 0.782687L2.86811 18.8561C2.5217 19.4133 2.52898 20.1205 2.88681 20.6704L8.34242 29.1189C8.76631 29.7703 9.56816 30.0651 10.313 29.8436L26.1451 25.1605C26.6275 25.0195 27.0249 24.6763 27.2348 24.2197C27.4418 23.7654 27.4382 23.2429 27.2251 22.7913L27.2243 22.7921ZM24.9209 23.7292L11.4864 27.7018C11.0766 27.8237 10.6832 27.4684 10.7685 27.0549L15.5682 4.07251C15.658 3.64249 16.2518 3.57443 16.4395 3.97229L25.3247 22.8407C25.4043 23.0109 25.4052 23.2073 25.3274 23.3782C25.2495 23.5492 25.1007 23.6774 24.9202 23.7292H24.9209Z" fill="#161924"/>
</g>
<defs>
<clipPath id="clip0_736_629">
<rect width="30" height="30" fill="white"/>
</clipPath>
</defs>
</svg>
