<svg width="30" height="30" viewBox="0 0 30 30" fill="none" xmlns="http://www.w3.org/2000/svg">
<g clip-path="url(#clip0_736_564)">
<path d="M20.1433 5.46436C20.3576 5.46436 20.5718 5.46436 20.679 5.5715C21.3218 6.00007 21.6433 7.39293 21.429 9.21436C21.3754 9.42863 21.3486 9.66969 21.3219 9.91074C21.2951 10.1518 21.2683 10.3929 21.2147 10.6072C20.2504 10.3929 19.179 10.1786 18.1076 10.0715C17.4647 9.21436 16.8218 8.35721 16.179 7.71436C17.679 6.21436 19.179 5.46436 20.1433 5.46436Z" fill="#161924"/>
<path fill-rule="evenodd" clip-rule="evenodd" d="M18.5361 16.9286C18.3754 17.2501 18.1879 17.5447 18.0004 17.8394C17.8129 18.134 17.6254 18.4286 17.4647 18.7501C17.0897 18.7501 16.7415 18.7769 16.3933 18.8036C16.0452 18.8304 15.6968 18.8572 15.3218 18.8572C14.5718 18.8572 13.8218 18.8572 13.179 18.7501C12.7504 18.2144 12.429 17.5715 12.1076 16.9286L11.1433 15.0001L12.1076 13.0715C12.429 12.4286 12.8576 11.7858 13.2861 11.2501C13.5952 11.2501 13.929 11.2253 14.2757 11.1996C14.6501 11.1718 15.0396 11.1429 15.429 11.1429C16.179 11.1429 16.8218 11.1429 17.5718 11.2501C17.8357 11.58 18.059 11.9505 18.2917 12.3366C18.4369 12.5775 18.5857 12.8245 18.7504 13.0715L19.7147 15.0001C19.2861 15.6429 18.8576 16.2858 18.5361 16.9286ZM17.5718 15.0001C17.5718 16.2858 16.6076 17.2501 15.3218 17.2501C14.0361 17.2501 13.0718 16.2858 13.0718 15.0001C13.0718 13.7144 14.0361 12.7501 15.3218 12.7501C16.6076 12.7501 17.5718 13.7144 17.5718 15.0001Z" fill="#161924"/>
<path d="M20.4647 17.3036C20.5718 17.5983 20.679 17.8929 20.7861 18.2144L18.8576 18.5358C19.0718 18.2144 19.2861 17.8929 19.5004 17.4644C19.6075 17.3037 19.7147 17.1162 19.8218 16.9287C19.9289 16.7412 20.0361 16.5536 20.1433 16.3929C20.2504 16.7143 20.3576 17.0091 20.4647 17.3036Z" fill="#161924"/>
<path d="M15.2147 21.4286C14.7861 21.0001 14.3576 20.4644 13.929 19.9286H16.5004C16.0718 20.4644 15.6433 21.0001 15.2147 21.4286Z" fill="#161924"/>
<path d="M11.5718 18.5358L9.64328 18.2144C9.75042 17.8929 9.85756 17.5983 9.96471 17.3036C10.0718 17.009 10.179 16.7144 10.2861 16.3929C10.3933 16.5536 10.5004 16.7411 10.6076 16.9286C10.7147 17.1161 10.8218 17.3036 10.929 17.4644C11.1433 17.8929 11.3576 18.2143 11.5718 18.5358Z" fill="#161924"/>
<path d="M10.3933 13.6072C10.179 12.9643 9.9647 12.3215 9.75042 11.7858L11.679 11.4644C11.5718 11.6251 11.4647 11.8126 11.3576 12.0001C11.2504 12.1876 11.1433 12.3751 11.0361 12.5358C10.7147 12.8572 10.5004 13.2858 10.3933 13.6072Z" fill="#161924"/>
<path d="M16.5004 10.0715L13.929 10.0715C14.3576 9.53579 14.7861 9.00007 15.2147 8.5715C15.6433 9.00006 16.0718 9.53577 16.5004 10.0715Z" fill="#161924"/>
<path d="M19.5004 12.5358C19.2861 12.1072 19.0719 11.7858 18.8576 11.4644L20.7861 11.7858C20.5718 12.4286 20.3576 13.0715 20.1433 13.6072C20.0361 13.4465 19.929 13.259 19.8218 13.0715C19.7147 12.884 19.6076 12.6965 19.5004 12.5358Z" fill="#161924"/>
<path d="M9.10756 9.21436C8.89328 7.39293 9.10756 6.00007 9.85756 5.5715C9.9647 5.46436 10.179 5.46436 10.3933 5.46436C11.3576 5.46436 12.8576 6.21436 14.4647 7.8215C13.8219 8.57149 13.179 9.32151 12.5361 10.1786C11.4647 10.2858 10.3933 10.5001 9.42899 10.7144C9.2147 10.1786 9.10756 9.64293 9.10756 9.21436Z" fill="#161924"/>
<path d="M7.17899 17.3572C5.4647 16.6072 4.39328 15.7501 4.39328 14.8929C4.39328 14.1429 5.4647 13.1786 7.17899 12.4286C7.60756 12.2144 8.03613 12.1072 8.57185 12.0001C8.89328 12.9644 9.2147 13.9286 9.64328 14.8929C9.2147 15.8572 8.78613 16.8215 8.57185 17.7858C8.03613 17.7858 7.60756 17.5715 7.17899 17.3572Z" fill="#161924"/>
<path d="M9.85756 24.4286C9.2147 24.0001 8.89328 22.6072 9.10756 20.7858C9.14658 20.6297 9.17139 20.4594 9.19752 20.2801C9.24313 19.967 9.29275 19.6264 9.42899 19.2858C10.3933 19.5001 11.3576 19.7144 12.429 19.8215C13.0718 20.6786 13.7147 21.5358 14.4647 22.2858C12.8576 23.7858 11.3576 24.6429 10.3933 24.6429C10.2993 24.596 10.2054 24.5696 10.1204 24.5457C10.0117 24.5152 9.91772 24.4888 9.85756 24.4286Z" fill="#161924"/>
<path d="M21.429 20.7858C21.6433 22.6072 21.429 24.0001 20.679 24.4286C20.5718 24.5358 20.3576 24.5358 20.1433 24.5358C19.179 24.5358 17.679 23.7858 16.0718 22.1786C16.2414 21.9808 16.4185 21.7829 16.5991 21.5811C17.1029 21.018 17.6343 20.4242 18.1076 19.7144C19.179 19.6072 20.2504 19.5001 21.1076 19.1786C21.2147 19.8215 21.3218 20.3572 21.429 20.7858Z" fill="#161924"/>
<path d="M23.3576 17.3572C23.098 17.487 22.8385 17.5775 22.5552 17.6762C22.3706 17.7406 22.176 17.8084 21.9647 17.8929C21.6433 16.9286 21.3218 15.9644 20.8933 15.0001C21.3218 14.0358 21.7504 12.9644 21.9647 12.1072C22.273 12.1689 22.5459 12.266 22.8037 12.3578C22.9938 12.4255 23.1757 12.4903 23.3576 12.5358C25.0718 13.2858 26.1433 14.1429 26.1433 15.0001C26.1433 15.7501 25.0718 16.7144 23.3576 17.3572Z" fill="#161924"/>
<path fill-rule="evenodd" clip-rule="evenodd" d="M4.28571 0H25.7143C28.0714 0 30 1.92857 30 4.28571V25.7143C30 28.0714 28.0714 30 25.7143 30H4.28571C1.92857 30 0 28.0714 0 25.7143V4.28571C0 1.92857 1.92857 0 4.28571 0ZM27.3218 15.0001C27.3218 13.2858 25.2861 11.8929 22.2861 10.9286C23.0361 7.8215 22.7147 5.35721 21.3218 4.60721C20.8933 4.39293 20.5718 4.28578 20.1433 4.28578C18.7504 4.28578 17.0361 5.25007 15.3218 6.96436C13.5004 5.25007 11.7861 4.28578 10.3933 4.28578C9.9647 4.28578 9.53613 4.39293 9.2147 4.60721C7.82185 5.35721 7.50042 7.8215 8.25042 10.9286C5.25042 11.8929 3.2147 13.2858 3.2147 15.0001C3.2147 16.7144 5.25042 18.1072 8.25042 19.0715C7.50042 22.1786 7.7147 24.6429 9.2147 25.5001C9.53613 25.7144 9.9647 25.8215 10.3933 25.8215C11.7861 25.8215 13.5004 24.8572 15.2147 23.1429C16.929 24.8572 18.7504 25.8215 20.0361 25.8215C20.4647 25.8215 20.8933 25.7144 21.2147 25.5001C22.6076 24.6429 22.929 22.1786 22.179 19.0715C25.2861 18.1072 27.3218 16.6072 27.3218 15.0001Z" fill="#161924"/>
</g>
<defs>
<clipPath id="clip0_736_564">
<rect width="30" height="30" fill="white"/>
</clipPath>
</defs>
</svg>
