<svg width="30" height="30" viewBox="0 0 30 30" fill="none" xmlns="http://www.w3.org/2000/svg">
<g clip-path="url(#clip0_736_573)">
<path d="M14.1491 20.7619C14.1209 20.8125 14.135 20.7901 14.1491 20.7619V20.7619ZM25.8265 16.6838C24.8834 16.6838 23.9534 16.8994 23.1078 17.3166C22.8312 16.7588 22.5453 16.2713 22.4984 15.9057C22.4422 15.4791 22.3812 15.226 22.4469 14.7197C22.5125 14.2135 22.8078 13.4963 22.8031 13.4447C22.7984 13.3932 22.7375 13.1354 22.1328 13.1307C21.5281 13.126 21.0078 13.2479 20.9469 13.4072C20.84 13.6988 20.7565 13.9979 20.6984 14.3025C20.5906 14.851 19.49 16.8104 18.8666 17.8322C18.6603 17.4338 18.4869 17.0822 18.4494 16.801C18.3931 16.3744 18.3322 16.1213 18.3978 15.615C18.4634 15.1088 18.7587 14.3916 18.754 14.34C18.7494 14.2885 18.6884 14.0307 18.0847 14.026C17.4809 14.0213 16.9597 14.1432 16.8987 14.3025C16.8378 14.4619 16.7722 14.8369 16.6503 15.1979C16.5284 15.5588 15.0612 18.8213 14.6778 19.6697C14.4809 20.101 14.3122 20.4479 14.1903 20.6822C14.1716 20.7197 14.1575 20.7432 14.1481 20.7619C14.1622 20.7385 14.1716 20.7151 14.1716 20.7244C14.0684 20.926 14.0075 21.0385 14.0075 21.0385V21.0432C13.9278 21.1932 13.8387 21.3291 13.7966 21.3291C13.7684 21.3291 13.7075 20.9354 13.8106 20.3963C14.0309 19.2619 14.5512 17.4994 14.5466 17.4385C14.5419 17.4057 14.645 17.101 14.2044 16.9369C13.7778 16.7822 13.6231 17.04 13.5856 17.04C13.5481 17.04 13.52 17.1338 13.52 17.1338C13.52 17.1338 13.9934 15.1463 12.6106 15.1463C11.7481 15.1463 10.5481 16.0932 9.95844 16.951C9.58812 17.1525 8.78656 17.5885 7.94281 18.0525C7.61938 18.2307 7.28656 18.4135 6.9725 18.5869C6.94906 18.5635 6.93031 18.54 6.90688 18.5166C5.22875 16.726 2.13126 15.4604 2.26251 13.0557C2.30938 12.1791 2.61407 9.87755 8.21937 7.0838C12.8131 4.7963 16.4853 5.42442 17.1181 6.8213C18.0275 8.81348 15.1541 12.5213 10.3841 13.0557C8.56531 13.2572 7.61 12.5541 7.37094 12.2916C7.1225 12.015 7.085 12.001 6.99125 12.0525C6.83656 12.1369 6.935 12.3807 6.99125 12.526C7.13188 12.8963 7.71781 13.5525 8.71625 13.8807C9.59281 14.1666 11.7247 14.326 14.3019 13.3275C17.1978 12.2119 19.4525 9.10411 18.7906 6.50255C18.1175 3.8588 13.7337 2.99161 9.58906 4.46348C7.11875 5.34005 4.44782 6.71817 2.52688 8.51348C0.24407 10.651 -0.120617 12.5119 0.0293833 13.29C0.563758 16.051 4.36907 17.851 5.89156 19.1822C5.81656 19.2244 5.74625 19.2619 5.68063 19.2994C4.91657 19.6791 2.01594 21.1979 1.28938 22.801C0.46907 24.6197 1.42532 25.9229 2.05251 26.101C4.01188 26.6447 6.01719 25.6651 7.09531 24.0572C8.17344 22.4494 8.04219 20.3494 7.54531 19.3932C7.54063 19.3791 7.53125 19.3697 7.52656 19.3557C7.72344 19.2385 7.925 19.1213 8.12656 19.0041C8.51562 18.7744 8.89531 18.5635 9.22812 18.3807C9.04062 18.8869 8.90469 19.4963 8.83437 20.3776C8.75 21.4088 9.17656 22.7447 9.72969 23.2697C9.97344 23.4994 10.2678 23.5041 10.4516 23.5041C11.0984 23.5041 11.3891 22.9697 11.7125 22.3322C12.1109 21.5541 12.4625 20.6494 12.4625 20.6494C12.4625 20.6494 12.0219 23.0963 13.2266 23.0963C13.6672 23.0963 14.1078 22.5291 14.3047 22.2385V22.2432C14.3047 22.2432 14.3141 22.2244 14.3375 22.1869C14.3844 22.1166 14.4078 22.0744 14.4078 22.0744V22.0604C14.5859 21.7557 14.975 21.0572 15.5609 19.9041C16.3203 18.4135 17.0459 16.5525 17.0459 16.5525C17.1162 16.9613 17.2137 17.3654 17.3366 17.7619C17.4678 18.2072 17.7444 18.6947 17.9647 19.1682C17.7866 19.4119 17.6787 19.5526 17.6787 19.5526C17.6787 19.5563 17.6806 19.5591 17.6834 19.5619C17.5428 19.7494 17.3834 19.951 17.2194 20.1479C16.6203 20.8604 15.9069 21.676 15.8131 21.9104C15.7006 22.1869 15.7287 22.3932 15.9444 22.5525C16.1037 22.6744 16.385 22.6932 16.6803 22.6697C17.2194 22.6322 17.5991 22.501 17.7819 22.4166C18.1194 22.2957 18.4372 22.1288 18.7287 21.9197C19.3147 21.4885 19.6709 20.8697 19.6381 20.0541C19.6194 19.6041 19.4741 19.1541 19.2959 18.7322C19.3475 18.6572 19.4037 18.5775 19.4553 18.4979C20.3825 17.1432 21.1006 15.6563 21.1006 15.6563C21.1709 16.065 21.2675 16.4691 21.3912 16.8657C21.5037 17.2454 21.724 17.6625 21.9256 18.0704C21.0537 18.7782 20.5147 19.5985 20.3281 20.1375C19.9812 21.136 20.2531 21.586 20.764 21.6891C20.9937 21.736 21.3219 21.6282 21.5656 21.525C21.9275 21.4041 22.2687 21.2288 22.5772 21.0047C23.1631 20.5735 23.7303 19.9688 23.6919 19.1485C23.6778 18.7782 23.5747 18.4079 23.4387 18.0516C24.1747 17.7422 25.1309 17.5735 26.3497 17.7141C28.9597 18.0188 29.4706 19.65 29.3722 20.3297C29.2737 21.0094 28.7253 21.3891 28.5425 21.5016C28.3597 21.6141 28.3034 21.6563 28.3175 21.7407C28.3409 21.8626 28.4253 21.8579 28.58 21.8297C28.7956 21.7922 29.9487 21.2766 30.0003 20.0157C30.0753 18.4219 28.5425 16.6688 25.8284 16.6829L25.8265 16.6838ZM5.70875 23.4666C4.84625 24.4088 3.63782 24.7651 3.1175 24.4651C2.55969 24.1407 2.78001 22.7541 3.84313 21.7501C4.49 21.1407 5.32438 20.5782 5.8775 20.2313C6.00406 20.1563 6.18688 20.0438 6.41188 19.9079C6.44938 19.8844 6.46813 19.875 6.46813 19.875C6.51031 19.8469 6.55719 19.8235 6.60406 19.7954C6.99219 21.2204 6.61813 22.4776 5.70875 23.4666ZM12.0069 19.1822C11.7069 19.9182 11.075 21.7932 10.6897 21.6947C10.3616 21.6104 10.16 20.1807 10.6241 18.7744C10.8584 18.0666 11.3553 17.2229 11.6506 16.8947C12.1241 16.365 12.6444 16.1963 12.7662 16.4072C12.9303 16.6838 12.1944 18.7229 12.0069 19.1822ZM17.21 21.6666C17.0834 21.7322 16.9662 21.7744 16.91 21.7416C16.8678 21.7182 16.9616 21.6291 16.9616 21.6291C16.9616 21.6291 17.6131 20.9307 17.8709 20.6119C18.0209 20.4244 18.1944 20.2041 18.3819 19.9604C18.3819 19.9838 18.3865 20.0072 18.3865 20.0354C18.3809 20.8744 17.5756 21.4416 17.21 21.6666ZM21.2225 20.7526C21.1287 20.6869 21.1428 20.4666 21.4569 19.7822C21.5787 19.515 21.86 19.065 22.3475 18.6338C22.4028 18.7969 22.4328 18.9676 22.4365 19.14C22.4319 20.1947 21.6772 20.5885 21.2225 20.7526Z" fill="#161924"/>
</g>
<defs>
<clipPath id="clip0_736_573">
<rect width="30" height="30" fill="white"/>
</clipPath>
</defs>
</svg>
