<svg width="30" height="30" viewBox="0 0 30 30" fill="none" xmlns="http://www.w3.org/2000/svg">
<path fill-rule="evenodd" clip-rule="evenodd" d="M15 6C10.9995 6 8.5005 7.98668 7.5 11.9615C9 9.97486 10.7505 9.22967 12.75 9.72596C13.8915 10.0093 14.7075 10.8325 15.609 11.7426C17.0805 13.2255 18.783 14.9423 22.5 14.9423C26.5005 14.9423 28.9995 12.9556 30 8.98077C28.5 10.9675 26.751 11.7126 24.75 11.2164C23.6085 10.933 22.7925 10.1098 21.8895 9.19968C20.4195 7.71529 18.7185 6 15 6ZM7.5 14.9423C3.4995 14.9423 1.0005 16.929 0 20.9039C1.5 18.9157 3.2505 18.172 5.25 18.6683C6.3915 18.9517 7.2075 19.7748 8.1105 20.6849C9.5805 22.1678 11.283 23.8846 15.0015 23.8846C19.002 23.8846 21.501 21.8979 22.5015 17.9231C21.0015 19.9098 19.251 20.655 17.2515 20.1587C16.11 19.8753 15.294 19.0521 14.3925 18.142C12.9195 16.6591 11.217 14.9423 7.5 14.9423Z" fill="#161924"/>
</svg>
