<svg width="30" height="30" viewBox="0 0 30 30" fill="none" xmlns="http://www.w3.org/2000/svg">
<path fill-rule="evenodd" clip-rule="evenodd" d="M0 0H30V30H0V0ZM2 2V28H28V2H2ZM6 12H16V14H12V26H10V14H6V12ZM16 16C16 13.7909 17.7909 12 20 12H22.3334C24.3583 12 26 13.6416 26 15.6667V16H24V15.6667C24 14.7462 23.2537 14 22.3334 14H20C18.8954 14 18 14.8954 18 16C18 17.1046 18.8954 18 20 18H22C24.2091 18 26 19.7909 26 22C26 24.2091 24.2091 26 22 26H20C17.7908 26 16 24.2091 16 22H18C18 23.1045 18.8954 24 20 24H22C23.1045 24 24 23.1045 24 22C24 20.8955 23.1045 20 22 20H20C17.7909 20 16 18.2091 16 16Z" fill="#161924"/>
</svg>
