<svg width="30" height="30" viewBox="0 0 30 30" fill="none" xmlns="http://www.w3.org/2000/svg">
<g clip-path="url(#clip0_736_590)">
<path d="M26.2583 10.2774C26.2624 9.41031 26.0251 8.55916 25.573 7.81923C25.1209 7.07929 24.4718 6.47976 23.6984 6.08772C22.925 5.69568 22.0577 5.5266 21.1936 5.5994C20.3296 5.6722 19.5028 5.984 18.8059 6.49993C18.1091 7.01633 17.5699 7.71647 17.2486 8.52197C16.9273 9.32746 16.8366 10.2065 16.9866 11.0606C17.1366 11.9148 17.5214 12.7103 18.0979 13.3582C18.6744 14.006 19.4199 14.4805 20.2509 14.7287C19.9443 15.3525 19.4697 15.8784 18.8805 16.2472C18.2913 16.6159 17.6109 16.813 16.9159 16.8162H13.1784C11.7953 16.8209 10.4635 17.34 9.44211 18.2724V9.24993C10.5764 9.01852 11.5843 8.37417 12.2705 7.44181C12.9567 6.50945 13.2723 5.3555 13.156 4.20371C13.0397 3.05191 12.4998 1.98433 11.6411 1.20795C10.7824 0.431571 9.66601 0.00170898 8.50836 0.00170898C7.35071 0.00170898 6.2343 0.431571 5.37558 1.20795C4.51687 1.98433 3.97703 3.05191 3.86074 4.20371C3.74445 5.3555 4.05999 6.50945 4.74618 7.44181C5.43237 8.37417 6.44032 9.01852 7.57461 9.24993V20.6462C6.44242 20.8624 5.4285 21.4856 4.72411 22.3979C4.01971 23.3103 3.67354 24.449 3.75088 25.599C3.82821 26.7491 4.32372 27.8311 5.14393 28.641C5.96414 29.4508 7.05235 29.9326 8.20331 29.9953C9.35426 30.0581 10.4884 29.6975 11.3918 28.9816C12.2952 28.2657 12.9054 27.2439 13.1073 26.1091C13.3092 24.9742 13.0888 23.8047 12.4878 22.8212C11.8867 21.8376 10.9466 21.108 9.84461 20.7699C10.152 20.147 10.6268 19.622 11.2159 19.254C11.805 18.8859 12.485 18.6893 13.1796 18.6862H16.9171C18.0827 18.6805 19.2176 18.3116 20.1638 17.6307C21.1099 16.9498 21.8202 15.9909 22.1959 14.8874C23.3159 14.7405 24.3447 14.1926 25.0917 13.3451C25.8386 12.4977 26.2531 11.407 26.2583 10.2774ZM5.70586 4.67243C5.70586 4.3044 5.77835 3.93997 5.91919 3.59996C6.06002 3.25995 6.26646 2.951 6.52669 2.69076C6.78693 2.43053 7.09587 2.2241 7.43589 2.08326C7.7759 1.94242 8.14033 1.86993 8.50836 1.86993C8.87639 1.86993 9.24081 1.94242 9.58083 2.08326C9.92084 2.2241 10.2298 2.43053 10.49 2.69076C10.7503 2.951 10.9567 3.25995 11.0975 3.59996C11.2384 3.93997 11.3109 4.3044 11.3109 4.67243C11.3109 5.4157 11.0156 6.12853 10.49 6.6541C9.96445 7.17967 9.25163 7.47493 8.50836 7.47493C7.76509 7.47493 7.05226 7.17967 6.52669 6.6541C6.00112 6.12853 5.70586 5.4157 5.70586 4.67243ZM11.3109 25.2237C11.3109 25.5917 11.2384 25.9561 11.0975 26.2961C10.9567 26.6362 10.7503 26.9451 10.49 27.2053C10.2298 27.4656 9.92084 27.672 9.58083 27.8128C9.24081 27.9537 8.87639 28.0262 8.50836 28.0262C8.14033 28.0262 7.7759 27.9537 7.43589 27.8128C7.09587 27.672 6.78693 27.4656 6.52669 27.2053C6.26646 26.9451 6.06002 26.6362 5.91919 26.2961C5.77835 25.9561 5.70586 25.5917 5.70586 25.2237C5.70586 24.4804 6.00112 23.7676 6.52669 23.242C7.05226 22.7164 7.76509 22.4212 8.50836 22.4212C9.25163 22.4212 9.96445 22.7164 10.49 23.242C11.0156 23.7676 11.3109 24.4804 11.3109 25.2237ZM21.5871 13.0799C20.8437 13.0799 20.1307 12.7846 19.605 12.2589C19.0793 11.7332 18.784 11.0202 18.784 10.2768C18.784 9.53337 19.0793 8.82038 19.605 8.29469C20.1307 7.76901 20.8437 7.47368 21.5871 7.47368C22.3305 7.47368 23.0435 7.76901 23.5692 8.29469C24.0949 8.82038 24.3902 9.53337 24.3902 10.2768C24.3902 11.0202 24.0949 11.7332 23.5692 12.2589C23.0435 12.7846 22.3305 13.0799 21.5871 13.0799Z" fill="#161924"/>
</g>
<defs>
<clipPath id="clip0_736_590">
<rect width="30" height="30" fill="white"/>
</clipPath>
</defs>
</svg>
