<svg xmlns="http://www.w3.org/2000/svg" viewBox="0 0 56.693 56.693" width="18" height="18" fill="#c5c7cd"><g><path d="M22.953,29.766c0,0,5.292-0.394,5.292-6.6c0-6.208-4.33-9.238-9.816-9.238H8.332H8.036H0.378v34.691h7.658h0.296H18.43 c0,0,11.019,0.348,11.019-10.24C29.448,38.378,29.93,29.766,22.953,29.766z M8.332,20.093h8.798h1.299c0,0,2.454,0,2.454,3.608 c0,3.61-1.444,4.134-3.08,4.134H8.331v-7.742H8.332z M17.919,42.452c-0.267,0.007-0.493,0-0.645,0H8.332v-9.27H18.43 c0,0,3.658-0.048,3.658,4.762C22.087,42.004,19.355,42.422,17.919,42.452z"></path><path d="M44.147,22.753c-13.341,0-13.329,13.329-13.329,13.329s-0.914,13.261,13.329,13.261c0,0,11.871,0.678,11.871-9.226h-6.106 c0,0,0.203,3.731-5.563,3.731c0,0-6.104,0.406-6.104-6.038h17.975C56.22,37.81,58.188,22.753,44.147,22.753z M38.177,33.182 c0,0,0.745-5.347,6.104-5.347c5.361,0,5.29,5.347,5.29,5.347H38.177z"></path><rect x="36.685" y="15.97" width="14.31" height="4.272"></rect></g></svg>