<svg width="86" height="50" viewBox="0 0 86 50" fill="none" xmlns="http://www.w3.org/2000/svg">
<path d="M3.58594 0H5.83203V2.22656H7.90234V0H10.1484V6.73828H7.90234V4.49219H5.85156V6.73828H3.58594M13.1172 2.24609H11.1348V0H17.3555V2.24609H15.3633V6.73828H13.1172M18.3418 0H20.6953L22.1406 2.37305L23.5859 0H25.9395V6.73828H23.6934V3.39844L22.1211 5.82031L20.5488 3.39844V6.73828H18.3418M27.0527 0H29.2988V4.51172H32.4824V6.73828H27.0527" fill="black"/>
<path d="M3.50781 45.9961L0.285156 9.82422H35.7148L32.4922 45.9766L17.9707 50" fill="#E44D26"/>
<path d="M18 46.9238V12.793H32.4824L29.7188 43.6523" fill="#F16529"/>
<path d="M6.86719 17.2168H18V21.6504H11.7305L12.1406 26.1914H18V30.6152H8.07812M8.27344 32.8418H12.7266L13.0391 36.3867L18 37.7148V42.3437L8.89844 39.8047" fill="#EBEBEB"/>
<path d="M29.0938 17.2168H17.9805V21.6504H28.6836M28.2832 26.1914H17.9805V30.625H23.4492L22.9316 36.3867L17.9805 37.7148V42.3242L27.0625 39.8047" fill="white"/>
<mask id="mask0_28_31" style="mask-type:luminance" maskUnits="userSpaceOnUse" x="36" y="0" width="50" height="50">
<path d="M86 0H36V50H86V0Z" fill="white"/>
</mask>
<g mask="url(#mask0_28_31)">
<path d="M78.6796 9.81055L75.4576 45.9055L60.9744 49.9207L46.5311 45.9112L43.3125 9.81055H78.6796Z" fill="#264DE4"/>
<path d="M72.6992 43.607L75.4527 12.7622H60.9961V46.8516L72.6992 43.607Z" fill="#2965F1"/>
<path d="M50.6914 26.1514L51.0882 30.5789H60.9963V26.1514H50.6914Z" fill="#EBEBEB"/>
<path d="M60.9963 17.1899H60.9811H49.894L50.2965 21.6175H60.9963V17.1899Z" fill="#EBEBEB"/>
<path d="M60.9959 42.257V37.6506L60.9765 37.6557L56.0455 36.3242L55.7303 32.793H53.3341H51.2856L51.906 39.745L60.9755 42.2627L60.9959 42.257Z" fill="#EBEBEB"/>
<path d="M51.6362 0H56.9988V2.24253H53.8787V4.48507H56.9988V6.72761H51.6362V0Z" fill="black"/>
<path d="M58.0713 0H63.4339V1.95003H60.3138V2.34004H63.4339V6.82511H58.0713V4.77758H61.1913V4.38757H58.0713V0Z" fill="black"/>
<path d="M64.5063 0H69.869V1.95003H66.7489V2.34004H69.869V6.82511H64.5063V4.77758H67.6264V4.38757H64.5063V0Z" fill="black"/>
<path d="M66.433 30.579L65.9191 36.3213L60.981 37.6541V42.2605L70.0577 39.7449L70.1243 38.9968L71.1648 27.3404L71.2728 26.1515L72.0721 17.1899H60.981V21.6175H67.2198L66.817 26.1515H60.981V30.579H66.433Z" fill="white"/>
</g>
</svg>
