<svg width="79" height="41" viewBox="0 0 79 41" fill="none" xmlns="http://www.w3.org/2000/svg">
<path d="M3.22266 36.1855L0 0.0136719H35.4297L32.207 36.166L17.6855 40.1895" fill="#E44D26"/>
<path d="M17.7148 37.1133V2.98242H32.1973L29.4336 33.8418" fill="#F16529"/>
<path d="M6.58203 7.40625H17.7148V11.8398H11.4453L11.8555 16.3809H17.7148V20.8047H7.79297M7.98828 23.0312H12.4414L12.7539 26.5762L17.7148 27.9043V32.5332L8.61328 29.9941" fill="#EBEBEB"/>
<path d="M28.8086 7.40625H17.6953V11.8398H28.3984M27.998 16.3809H17.6953V20.8145H23.1641L22.6465 26.5762L17.6953 27.9043V32.5137L26.7773 29.9941" fill="white"/>
<path d="M78.3944 0L75.1724 36.0949L60.6892 40.1101L46.2459 36.1007L43.0273 0H78.3944Z" fill="#264DE4"/>
<path d="M72.414 33.7965L75.1675 2.95166H60.7109V37.0411L72.414 33.7965Z" fill="#2965F1"/>
<path d="M50.4062 16.3408L50.8031 20.7683H60.7112V16.3408H50.4062Z" fill="#EBEBEB"/>
<path d="M60.7107 7.37939H60.6955H49.6084L50.0109 11.807H60.7107V7.37939Z" fill="#EBEBEB"/>
<path d="M60.7103 32.4464V27.84L60.6909 27.8451L55.7599 26.5136L55.4447 22.9824H53.0485H51L51.6204 29.9344L60.6899 32.4521L60.7103 32.4464Z" fill="#EBEBEB"/>
<path d="M66.1483 20.7685L65.6344 26.5108L60.6963 27.8436V32.45L69.773 29.9344L69.8396 29.1863L70.8801 17.5299L70.9881 16.341L71.7874 7.37939H60.6963V11.807H66.9351L66.5323 16.341H60.6963V20.7685H66.1483Z" fill="white"/>
</svg>
