<svg width="51" height="51" viewBox="0 0 51 51" fill="none" xmlns="http://www.w3.org/2000/svg">
<circle cx="25.5" cy="25.5" r="25.5" fill="#161924"/>
<path d="M20.914 40C20.3617 40 19.914 39.5523 19.914 39V17.9729C19.914 17.4206 19.4663 16.9729 18.914 16.9729H15C14.4477 16.9729 14 16.5251 14 15.9729V14C14 13.4477 14.4477 13 15 13H33C33.5523 13 34 13.4477 34 14V15.9729C34 16.5251 33.5523 16.9729 33 16.9729H25.7921C25.2398 16.9729 24.7921 17.4206 24.7921 17.9729V39C24.7921 39.5523 24.3444 40 23.7921 40H20.914Z" fill="white"/>
<path d="M31 40C30.4477 40 30 39.5523 30 39V26C30 25.4477 30.4477 25 31 25H33C33.5523 25 34 25.4477 34 26V39C34 39.5523 33.5523 40 33 40H31Z" fill="white"/>
<circle cx="32" cy="22" r="2" fill="white"/>
</svg>
