<svg width="18" height="18" viewBox="0 0 18 18" fill="none" xmlns="http://www.w3.org/2000/svg">
<path fillRule="evenodd" clip-rule="evenodd" d="M14.5559 12.8192C13.9009 13.0003 13.2113 13.097 12.5 13.097C8.24742 13.097 4.8 9.64959 4.8 5.39699C4.8 4.68573 4.89672 3.99611 5.07783 3.34108C3.336 4.57311 2.2 6.60331 2.2 8.89699C2.2 12.6525 5.24441 15.697 9 15.697C11.2937 15.697 13.3239 14.561 14.5559 12.8192ZM15.3936 11.219C14.5222 11.6529 13.5396 11.897 12.5 11.897C8.91016 11.897 6 8.98684 6 5.39699C6 4.35741 6.24405 3.37483 6.67799 2.50341C6.67831 2.50277 6.67863 2.50213 6.67895 2.50149C6.6877 2.48394 6.69652 2.46644 6.70542 2.44898C6.75508 2.35157 6.80712 2.25559 6.86146 2.16109C7.09805 1.74975 6.76421 1.19885 6.31715 1.35795C3.21839 2.46074 1 5.41979 1 8.89699C1 13.3153 4.58167 16.897 9 16.897C12.4772 16.897 15.4363 14.6785 16.5391 11.5798C16.6981 11.1327 16.1473 10.7989 15.736 11.0355C15.6415 11.0898 15.5455 11.1419 15.4481 11.1915C15.4306 11.2004 15.4131 11.2093 15.3955 11.218C15.3949 11.2183 15.3942 11.2187 15.3936 11.219Z" fill="#202123"/>
</svg>
