<svg width="159" height="23" viewBox="0 0 159 23" fill="none" xmlns="http://www.w3.org/2000/svg">
<g clip-path="url(#clip0_32_2)">
<path d="M0 10.1596C0 9.90348 0.19516 9.69427 0.444236 9.63476C0.829037 9.54282 1.13616 9.38671 1.36561 9.16644C1.68987 8.86713 1.852 8.47428 1.852 7.9879C1.852 7.53893 1.80211 6.71582 1.70234 5.51857C1.5901 4.39615 1.53398 3.49821 1.53398 2.82476C1.53398 1.93929 1.78964 1.24713 2.30096 0.748281C2.82476 0.249427 3.51069 0 4.35874 0H5.11211C5.38825 0 5.61211 0.223858 5.61211 0.5V1.352C5.61211 1.62814 5.38825 1.852 5.11211 1.852H4.789C4.38992 1.852 4.0906 1.94553 3.89106 2.1326C3.70399 2.3072 3.61046 2.59404 3.61046 2.99312C3.61046 3.29244 3.62916 3.69152 3.66658 4.19037C3.70399 4.68923 3.72893 5.04466 3.74141 5.25667C3.85365 6.40404 3.90977 7.33939 3.90977 8.06273C3.90977 8.69877 3.74764 9.2288 3.42339 9.65282C3.1145 10.0729 2.63425 10.3522 1.98263 10.4908C1.97197 10.493 1.96424 10.5025 1.96424 10.5133C1.96424 10.5242 1.97197 10.5337 1.98263 10.5359C2.63425 10.6745 3.1145 10.9538 3.42339 11.3739C3.74764 11.7979 3.90977 12.3279 3.90977 12.964C3.90977 13.6873 3.85365 14.6227 3.74141 15.77C3.72893 15.982 3.70399 16.3375 3.66658 16.8363C3.62916 17.3352 3.61046 17.7343 3.61046 18.0336C3.61046 18.4327 3.70399 18.7195 3.89106 18.8941C4.0906 19.0812 4.38992 19.1747 4.789 19.1747H5.11211C5.38825 19.1747 5.61211 19.3986 5.61211 19.6747V20.5267C5.61211 20.8028 5.38825 21.0267 5.11211 21.0267H4.35874C3.51069 21.0267 2.82476 20.7773 2.30096 20.2784C1.78964 19.7796 1.53398 19.0874 1.53398 18.2019C1.53398 17.5285 1.5901 16.6305 1.70234 15.5081C1.80211 14.3109 1.852 13.4878 1.852 13.0388C1.852 12.5524 1.68987 12.1596 1.36561 11.8603C1.13616 11.64 0.829037 11.4839 0.444236 11.3919C0.19516 11.3324 0 11.1232 0 10.8671V10.1596Z" fill="#202123"/>
<path d="M22.8906 8.24986C22.7039 8.24986 22.5352 8.14435 22.4369 7.9857C22.1158 7.46766 21.6981 7.06933 21.1838 6.79071C20.5851 6.45398 19.893 6.28562 19.1073 6.28562C18.2468 6.28562 17.4798 6.47893 16.8063 6.86554C16.1329 7.25215 15.6028 7.80089 15.2162 8.51176C14.8421 9.22262 14.655 10.0458 14.655 10.9811C14.655 11.9165 14.8421 12.7458 15.2162 13.4692C15.6028 14.18 16.1329 14.7288 16.8063 15.1154C17.4798 15.502 18.2468 15.6953 19.1073 15.6953C20.2671 15.6953 21.2087 15.371 21.932 14.7225C22.5275 14.1887 22.9328 13.4985 23.1479 12.652C23.223 12.3565 22.9868 12.0848 22.6819 12.0848H18.8777C18.6016 12.0848 18.3777 11.861 18.3777 11.5848V10.8825C18.3777 10.6064 18.6016 10.3825 18.8777 10.3825H25.0425C25.3186 10.3825 25.5425 10.6064 25.5425 10.8825V12.0474C25.4053 13.0576 25.0436 13.9867 24.4575 14.8348C23.8838 15.6828 23.1293 16.3625 22.1939 16.8738C21.2711 17.3727 20.2422 17.6221 19.1073 17.6221C17.8851 17.6221 16.7689 17.3415 15.7587 16.7803C14.7485 16.2066 13.9441 15.4147 13.3455 14.4045C12.7594 13.3943 12.4663 12.2532 12.4663 10.9811C12.4663 9.70901 12.7594 8.56788 13.3455 7.5577C13.9441 6.54752 14.7485 5.76182 15.7587 5.20061C16.7814 4.62693 17.8976 4.34009 19.1073 4.34009C20.4916 4.34009 21.72 4.68305 22.7926 5.36898C23.6758 5.91721 24.3607 6.65554 24.8473 7.58395C25.0106 7.89563 24.7699 8.24986 24.418 8.24986H22.8906Z" fill="#202123"/>
<path d="M29.5913 7.52501C29.5913 7.85308 30.0945 8.01749 30.3479 7.8091C30.4961 7.68715 30.6555 7.57836 30.826 7.48274C31.2231 7.25578 31.6741 7.11487 32.1788 7.06001C32.4534 7.03017 32.678 7.25763 32.678 7.53377V8.7412C32.678 9.01734 32.4541 9.2412 32.178 9.2412H32.1355C31.2999 9.2412 30.6638 9.45321 30.2273 9.87724C29.8033 10.3012 29.5913 11.037 29.5913 12.0846V17.0097C29.5913 17.2858 29.3674 17.5097 29.0913 17.5097H27.9587C27.6826 17.5097 27.4587 17.2858 27.4587 17.0097V7.70213C27.4587 7.42599 27.6826 7.20213 27.9587 7.20213H29.2684C29.4467 7.20213 29.5913 7.34669 29.5913 7.52501Z" fill="#202123"/>
<path d="M36.8766 14.9874C36.6493 15.3192 36.8869 15.7699 37.2891 15.7699H40.5174C40.7935 15.7699 41.0174 15.9938 41.0174 16.2699V17.0097C41.0174 17.2858 40.7935 17.5097 40.5174 17.5097H34.3713C34.0951 17.5097 33.8713 17.2858 33.8713 17.0097V15.9252C33.8713 15.8241 33.902 15.7253 33.9593 15.6419L38.0281 9.72522C38.2562 9.39347 38.0187 8.94191 37.6161 8.94191H34.3713C34.0951 8.94191 33.8713 8.71805 33.8713 8.44191V7.70215C33.8713 7.42601 34.0951 7.20215 34.3713 7.20215H40.5174C40.7935 7.20215 41.0174 7.42601 41.0174 7.70215V8.78709C41.0174 8.88794 40.9869 8.98643 40.9299 9.06963L36.8766 14.9874Z" fill="#202123"/>
<path d="M52.5165 12.1035C52.5165 12.3238 52.5084 12.5319 52.4922 12.7279C52.472 12.9727 52.261 13.1511 52.0153 13.1511H45.1053C44.8143 13.1511 44.5804 13.4005 44.6455 13.6841C44.7788 14.2646 45.0579 14.7479 45.4827 15.1341C46.0314 15.6329 46.7049 15.8824 47.503 15.8824C48.5366 15.8824 49.2969 15.4928 49.7839 14.7136C49.8848 14.5522 50.0554 14.4419 50.2458 14.4419H51.5451C51.8855 14.4419 52.1259 14.7759 51.9745 15.0808C51.644 15.746 51.1637 16.3125 50.5336 16.7803C49.7229 17.3789 48.7128 17.6782 47.503 17.6782C46.5178 17.6782 45.6323 17.46 44.8466 17.0235C44.0734 16.5745 43.4623 15.951 43.0133 15.1528C42.5769 14.3422 42.3586 13.4068 42.3586 12.3467C42.3586 11.2867 42.5706 10.3576 42.9946 9.55939C43.4311 8.74875 44.036 8.12518 44.8092 7.68869C45.5949 7.25219 46.4929 7.03394 47.503 7.03394C48.4758 7.03394 49.3426 7.24595 50.1033 7.66998C50.8641 8.09401 51.4565 8.69263 51.8805 9.46585C52.3045 10.2266 52.5165 11.1058 52.5165 12.1035ZM49.7824 11.4301C50.0616 11.4301 50.2924 11.1996 50.2415 10.925C50.1386 10.3697 49.8742 9.90831 49.4486 9.54068C48.8998 9.06677 48.2201 8.82981 47.4095 8.82981C46.6737 8.82981 46.0439 9.06677 45.5201 9.54068C45.1243 9.88938 44.8495 10.3342 44.6958 10.8752C44.6137 11.1645 44.8504 11.4301 45.1511 11.4301H49.7824Z" fill="#202123"/>
<path d="M58.5811 7.03394C59.3793 7.03394 60.0839 7.19607 60.695 7.52032C60.9341 7.63989 61.1531 7.77137 61.3519 7.91478C61.6416 8.12384 62.1541 7.9298 62.1541 7.57247C62.1541 7.36803 62.3199 7.2023 62.5243 7.2023H63.8055C64.0816 7.2023 64.3055 7.42616 64.3055 7.7023V17.6782C64.3055 18.6261 64.1059 19.4679 63.7068 20.2037C63.3077 20.952 62.7278 21.5381 61.9671 21.9621C61.2188 22.3862 60.3209 22.5982 59.2733 22.5982C57.8765 22.5982 56.7166 22.2677 55.7938 21.6067C55.0271 21.068 54.5359 20.3658 54.32 19.5C54.2479 19.2109 54.483 18.9503 54.781 18.9503H55.9651C56.1855 18.9503 56.3744 19.0978 56.4726 19.2951C56.6613 19.6742 56.9588 19.9896 57.3651 20.2411C57.9014 20.5778 58.5375 20.7462 59.2733 20.7462C60.1338 20.7462 60.8259 20.4843 61.3497 19.9605C61.886 19.4367 62.1541 18.6759 62.1541 17.6782V17.4675C62.1541 16.986 61.4517 16.7115 61.0473 16.9728C60.9292 17.049 60.8056 17.122 60.6763 17.1919C60.0652 17.5161 59.3668 17.6782 58.5811 17.6782C57.6832 17.6782 56.8601 17.4538 56.1118 17.0048C55.376 16.5433 54.7898 15.9073 54.3533 15.0967C53.9293 14.2736 53.7173 13.3444 53.7173 12.3093C53.7173 11.2742 53.9293 10.3576 54.3533 9.55939C54.7898 8.76122 55.376 8.14389 56.1118 7.70739C56.8601 7.25843 57.6832 7.03394 58.5811 7.03394ZM62.1541 12.3467C62.1541 11.6359 62.0045 11.0185 61.7052 10.4947C61.4183 9.97094 61.038 9.57186 60.564 9.29749C60.0901 9.02312 59.5788 8.88594 59.0301 8.88594C58.4813 8.88594 57.97 9.02312 57.4961 9.29749C57.0222 9.55939 56.6356 9.95224 56.3363 10.476C56.0494 10.9874 55.906 11.5985 55.906 12.3093C55.906 13.0202 56.0494 13.6438 56.3363 14.18C56.6356 14.7163 57.0222 15.1278 57.4961 15.4147C57.9825 15.6891 58.4938 15.8262 59.0301 15.8262C59.5788 15.8262 60.0901 15.6891 60.564 15.4147C61.038 15.1403 61.4183 14.7412 61.7052 14.2174C62.0045 13.6812 62.1541 13.0576 62.1541 12.3467Z" fill="#202123"/>
<path d="M71.3904 17.6782C70.4177 17.6782 69.5385 17.46 68.7528 17.0235C67.9671 16.5745 67.3497 15.951 66.9008 15.1528C66.4518 14.3422 66.2273 13.4068 66.2273 12.3467C66.2273 11.2991 66.458 10.37 66.9195 9.55939C67.3809 8.74875 68.0107 8.12518 68.8089 7.68869C69.607 7.25219 70.4987 7.03394 71.484 7.03394C72.4692 7.03394 73.3609 7.25219 74.1591 7.68869C74.9573 8.12518 75.5871 8.74875 76.0485 9.55939C76.5099 10.37 76.7407 11.2991 76.7407 12.3467C76.7407 13.3943 76.5037 14.3234 76.0298 15.1341C75.5559 15.9447 74.9074 16.5745 74.0843 17.0235C73.2736 17.46 72.3757 17.6782 71.3904 17.6782ZM71.3904 15.8262C71.9392 15.8262 72.4505 15.6953 72.9244 15.4334C73.4108 15.1715 73.8037 14.7786 74.103 14.2549C74.4023 13.7311 74.5519 13.095 74.5519 12.3467C74.5519 11.5985 74.4085 10.9687 74.1217 10.4573C73.8348 9.93353 73.4545 9.54068 72.9805 9.27878C72.5066 9.01688 71.9953 8.88594 71.4466 8.88594C70.8978 8.88594 70.3865 9.01688 69.9126 9.27878C69.4511 9.54068 69.0833 9.93353 68.8089 10.4573C68.5345 10.9687 68.3973 11.5985 68.3973 12.3467C68.3973 13.4567 68.6779 14.3172 69.2391 14.9283C69.8128 15.5269 70.5299 15.8262 71.3904 15.8262Z" fill="#202123"/>
<path d="M80.7945 7.52501C80.7945 7.85308 81.2977 8.01749 81.551 7.8091C81.6993 7.68715 81.8587 7.57836 82.0291 7.48274C82.4263 7.25578 82.8773 7.11487 83.382 7.06001C83.6565 7.03017 83.8811 7.25763 83.8811 7.53377V8.7412C83.8811 9.01734 83.6573 9.2412 83.3811 9.2412H83.3386C82.5031 9.2412 81.867 9.45321 81.4305 9.87724C81.0065 10.3012 80.7945 11.037 80.7945 12.0846V17.0097C80.7945 17.2858 80.5706 17.5097 80.2945 17.5097H79.1619C78.8857 17.5097 78.6619 17.2858 78.6619 17.0097V7.70213C78.6619 7.42599 78.8857 7.20213 79.1619 7.20213H80.4716C80.6499 7.20213 80.7945 7.34669 80.7945 7.52501Z" fill="#202123"/>
<path d="M88.0799 14.9874C87.8526 15.3192 88.0902 15.7699 88.4924 15.7699H91.7206C91.9968 15.7699 92.2206 15.9938 92.2206 16.2699V17.0097C92.2206 17.2858 91.9968 17.5097 91.7206 17.5097H85.5745C85.2984 17.5097 85.0745 17.2858 85.0745 17.0097V15.9252C85.0745 15.8241 85.1052 15.7253 85.1626 15.6419L89.2313 9.72522C89.4595 9.39347 89.222 8.94191 88.8194 8.94191H85.5745C85.2984 8.94191 85.0745 8.71805 85.0745 8.44191V7.70215C85.0745 7.42601 85.2984 7.20215 85.5745 7.20215H91.7206C91.9968 7.20215 92.2206 7.42601 92.2206 7.70215V8.78709C92.2206 8.88794 92.1901 8.98643 92.1331 9.06963L88.0799 14.9874Z" fill="#202123"/>
<path d="M106.339 17.5097C106.193 17.5097 106.055 17.4466 105.96 17.3368L101.956 12.7071C101.653 12.3568 101.078 12.5711 101.078 13.0342V17.0097C101.078 17.2858 100.854 17.5097 100.578 17.5097H99.4451C99.169 17.5097 98.9451 17.2858 98.9451 17.0097V5.0083C98.9451 4.73216 99.169 4.5083 99.4451 4.5083H100.578C100.854 4.5083 101.078 4.73216 101.078 5.0083V9.08028C101.078 9.54526 101.657 9.75847 101.958 9.40449L105.979 4.68409C106.074 4.57256 106.213 4.5083 106.36 4.5083H107.708C108.136 4.5083 108.366 5.0123 108.085 5.33601L103.441 10.6874C103.277 10.8768 103.278 11.1587 103.445 11.3465L108.162 16.6784C108.447 17.0011 108.218 17.5097 107.787 17.5097H106.339Z" fill="#202123"/>
<path d="M115.067 17.6782C114.094 17.6782 113.215 17.46 112.429 17.0235C111.644 16.5745 111.026 15.951 110.577 15.1528C110.128 14.3422 109.904 13.4068 109.904 12.3467C109.904 11.2991 110.135 10.37 110.596 9.55939C111.058 8.74875 111.687 8.12518 112.486 7.68869C113.284 7.25219 114.175 7.03394 115.161 7.03394C116.146 7.03394 117.038 7.25219 117.836 7.68869C118.634 8.12518 119.264 8.74875 119.725 9.55939C120.187 10.37 120.417 11.2991 120.417 12.3467C120.417 13.3943 120.18 14.3234 119.706 15.1341C119.233 15.9447 118.584 16.5745 117.761 17.0235C116.95 17.46 116.052 17.6782 115.067 17.6782ZM115.067 15.8262C115.616 15.8262 116.127 15.6953 116.601 15.4334C117.087 15.1715 117.48 14.7786 117.78 14.2549C118.079 13.7311 118.229 13.095 118.229 12.3467C118.229 11.5985 118.085 10.9687 117.798 10.4573C117.511 9.93353 117.131 9.54068 116.657 9.27878C116.183 9.01688 115.672 8.88594 115.123 8.88594C114.574 8.88594 114.063 9.01688 113.589 9.27878C113.128 9.54068 112.76 9.93353 112.486 10.4573C112.211 10.9687 112.074 11.5985 112.074 12.3467C112.074 13.4567 112.355 14.3172 112.916 14.9283C113.489 15.5269 114.207 15.8262 115.067 15.8262Z" fill="#202123"/>
<path d="M121.628 12.3467C121.628 11.2867 121.84 10.3576 122.264 9.55939C122.7 8.74875 123.299 8.12518 124.059 7.68869C124.82 7.25219 125.693 7.03394 126.678 7.03394C127.926 7.03394 128.954 7.33325 129.765 7.93188C130.427 8.40318 130.915 9.03977 131.231 9.84165C131.35 10.1465 131.11 10.4573 130.783 10.4573H129.479C129.269 10.4573 129.085 10.3239 128.99 10.137C128.805 9.77632 128.552 9.484 128.231 9.26008C127.82 8.97324 127.302 8.82981 126.678 8.82981C125.805 8.82981 125.107 9.1416 124.583 9.76517C124.072 10.3763 123.816 11.2368 123.816 12.3467C123.816 13.4567 124.072 14.3234 124.583 14.947C125.107 15.5706 125.805 15.8824 126.678 15.8824C127.785 15.8824 128.556 15.4467 128.991 14.5753C129.085 14.3879 129.268 14.2549 129.478 14.2549H130.767C131.099 14.2549 131.34 14.574 131.21 14.8797C130.886 15.6401 130.399 16.2674 129.746 16.7616C128.923 17.3727 127.901 17.6782 126.678 17.6782C125.693 17.6782 124.82 17.46 124.059 17.0235C123.299 16.5745 122.7 15.951 122.264 15.1528C121.84 14.3422 121.628 13.4068 121.628 12.3467Z" fill="#202123"/>
<path d="M134.453 5.83669C134.067 5.83669 133.742 5.70574 133.48 5.44384C133.219 5.18195 133.088 4.85769 133.088 4.47108C133.088 4.08447 133.219 3.76021 133.48 3.49831C133.742 3.23642 134.067 3.10547 134.453 3.10547C134.827 3.10547 135.145 3.23642 135.407 3.49831C135.669 3.76021 135.8 4.08447 135.8 4.47108C135.8 4.85769 135.669 5.18195 135.407 5.44384C135.145 5.70574 134.827 5.83669 134.453 5.83669ZM135.001 7.2023C135.277 7.2023 135.501 7.42616 135.501 7.7023V17.0099C135.501 17.286 135.277 17.5099 135.001 17.5099H133.868C133.592 17.5099 133.368 17.286 133.368 17.0099V7.7023C133.368 7.42616 133.592 7.2023 133.868 7.2023H135.001Z" fill="#202123"/>
<path d="M142.504 12.026C142.328 12.2177 142.328 12.5126 142.505 12.7039L146.168 16.6704C146.464 16.9907 146.237 17.5097 145.801 17.5097H144.292C144.146 17.5097 144.008 17.4462 143.913 17.3359L141.125 14.0972C140.823 13.7458 140.246 13.9597 140.246 14.4234V17.0097C140.246 17.2858 140.022 17.5097 139.746 17.5097H138.614C138.338 17.5097 138.114 17.2858 138.114 17.0097V4.1665C138.114 3.89035 138.338 3.6665 138.614 3.6665H139.746C140.022 3.6665 140.246 3.89035 140.246 4.1665V10.325C140.246 10.7932 140.832 11.0046 141.131 10.6444L143.838 7.38282C143.933 7.26835 144.074 7.20212 144.223 7.20212H145.804C146.239 7.20212 146.467 7.72024 146.172 8.04071L142.504 12.026Z" fill="#202123"/>
<path d="M158.85 10.8671C158.85 11.1232 158.655 11.3326 158.406 11.3916C158.018 11.4835 157.705 11.6397 157.466 11.8603C157.154 12.1596 156.998 12.5524 156.998 13.0388C156.998 13.4878 157.048 14.3109 157.148 15.5081C157.26 16.6305 157.316 17.5285 157.316 18.2019C157.316 19.0874 157.054 19.7796 156.53 20.2784C156.019 20.7773 155.339 21.0267 154.491 21.0267H153.738C153.462 21.0267 153.238 20.8028 153.238 20.5267V19.6747C153.238 19.3986 153.462 19.1747 153.738 19.1747H154.061C154.46 19.1747 154.753 19.0812 154.94 18.8941C155.14 18.7195 155.24 18.4327 155.24 18.0336C155.24 17.7343 155.221 17.3352 155.183 16.8363C155.146 16.3375 155.121 15.982 155.109 15.77C154.996 14.6227 154.94 13.6873 154.94 12.964C154.94 12.3279 155.096 11.7979 155.408 11.3739C155.729 10.9538 156.216 10.6745 156.867 10.5359C156.878 10.5337 156.886 10.5242 156.886 10.5133C156.886 10.5025 156.878 10.493 156.867 10.4908C156.216 10.3522 155.729 10.0729 155.408 9.65282C155.096 9.2288 154.94 8.69877 154.94 8.06273C154.94 7.33939 154.996 6.40404 155.109 5.25667C155.121 5.04466 155.146 4.68923 155.183 4.19037C155.221 3.69152 155.24 3.29244 155.24 2.99312C155.24 2.59404 155.14 2.3072 154.94 2.1326C154.753 1.94553 154.46 1.852 154.061 1.852H153.738C153.462 1.852 153.238 1.62814 153.238 1.352V0.5C153.238 0.223857 153.462 0 153.738 0H154.491C155.339 0 156.019 0.249427 156.53 0.748281C157.054 1.24713 157.316 1.93929 157.316 2.82476C157.316 3.49821 157.26 4.39615 157.148 5.51857C157.048 6.71582 156.998 7.53893 156.998 7.9879C156.998 8.47428 157.154 8.86713 157.466 9.16644C157.705 9.38695 158.018 9.54316 158.406 9.63506C158.655 9.69411 158.85 9.90348 158.85 10.1596V10.8671Z" fill="#202123"/>
</g>
<defs>
<clipPath id="clip0_32_2">
<rect width="159" height="23" fill="white"/>
</clipPath>
</defs>
</svg>
