<svg width="21" height="26" viewBox="0 0 21 26" fill="none" xmlns="http://www.w3.org/2000/svg">
<path d="M0 2.64477C0 2.23609 0.035274 1.87995 0.105822 1.57635C0.17637 1.27276 0.311587 1.02171 0.511473 0.823207C0.711358 0.613027 0.987671 0.455391 1.34041 0.350301C1.69315 0.24521 2.15171 0.192666 2.7161 0.192666H10.5822C11.1936 0.192666 11.6698 0.274402 12.0108 0.437876C12.3518 0.589673 12.6046 0.788177 12.7692 1.03339C12.9455 1.2786 13.0514 1.553 13.0866 1.8566C13.1337 2.14851 13.1572 2.42875 13.1572 2.69732V4.76409L17.5664 0.507936C17.7311 0.344463 17.878 0.221857 18.0074 0.14012C18.1367 0.0467064 18.266 0 18.3954 0C18.513 0 18.6129 0.0291914 18.6952 0.087575C18.7893 0.145958 18.8892 0.227695 18.995 0.332786L19.9827 1.36617C20.065 1.45959 20.1297 1.54716 20.1767 1.6289C20.2237 1.69896 20.2473 1.7807 20.2473 1.87411C20.2473 2.10764 20.1062 2.33534 19.824 2.5572L14.4271 6.74329C16.0967 6.89509 17.3136 7.37384 18.0779 8.17953C18.8422 8.98522 19.2243 10.1412 19.2243 11.6475V24.5211C19.2243 24.7196 19.1949 24.8772 19.1361 24.994C19.0891 25.0991 19.0244 25.1808 18.9421 25.2392C18.8716 25.2859 18.7834 25.3151 18.6776 25.3268C18.5717 25.3384 18.4659 25.3443 18.3601 25.3443H16.8786C16.5729 25.3443 16.373 25.2567 16.2789 25.0816C16.1966 24.9064 16.1555 24.7196 16.1555 24.5211V11.4548C16.1555 10.9177 16.1026 10.474 15.9967 10.1237C15.9027 9.7734 15.7381 9.49316 15.5029 9.28298C15.2678 9.06112 14.9562 8.90348 14.5682 8.81007C14.1919 8.70498 13.7216 8.64076 13.1572 8.61741V22.5068C13.1572 22.7754 13.1337 23.0732 13.0866 23.4001C13.0396 23.7271 12.922 24.0365 12.7339 24.3284C12.5458 24.6086 12.2577 24.848 11.8697 25.0465C11.4817 25.245 10.9467 25.3443 10.2647 25.3443H2.7161C2.15171 25.3443 1.69315 25.2917 1.34041 25.1866C0.987671 25.0816 0.711358 24.9298 0.511473 24.7313C0.311587 24.5328 0.17637 24.2817 0.105822 23.9781C0.035274 23.6745 0 23.3184 0 22.9097V2.64477Z" fill="url(#paint0_linear_736_914)"/>
<defs>
<linearGradient id="paint0_linear_736_914" x1="-8.5" y1="-6.5" x2="18" y2="23.5" gradientUnits="userSpaceOnUse">
<stop stop-color="#4438F2"/>
<stop offset="0.5" stop-color="#643DF8"/>
<stop offset="1" stop-color="#3A1187"/>
</linearGradient>
</defs>
</svg>
