<svg width="159" height="23" viewBox="0 0 159 23" fill="none" xmlns="http://www.w3.org/2000/svg">
<path d="M0 10.1596C0 9.90348 0.19516 9.69427 0.444236 9.63476C0.829037 9.54282 1.13616 9.38671 1.36561 9.16644C1.68987 8.86713 1.852 8.47428 1.852 7.9879C1.852 7.53893 1.80211 6.71582 1.70234 5.51857C1.5901 4.39615 1.53398 3.49821 1.53398 2.82476C1.53398 1.93929 1.78964 1.24713 2.30096 0.748281C2.82476 0.249427 3.51069 0 4.35874 0H5.11211C5.38825 0 5.61211 0.223858 5.61211 0.5V1.352C5.61211 1.62814 5.38825 1.852 5.11211 1.852H4.789C4.38992 1.852 4.0906 1.94553 3.89106 2.1326C3.70399 2.3072 3.61046 2.59404 3.61046 2.99312C3.61046 3.29244 3.62916 3.69152 3.66658 4.19037C3.70399 4.68923 3.72893 5.04466 3.74141 5.25667C3.85365 6.40404 3.90977 7.33939 3.90977 8.06273C3.90977 8.69877 3.74764 9.2288 3.42339 9.65282C3.1145 10.0729 2.63425 10.3522 1.98263 10.4908C1.97197 10.493 1.96424 10.5025 1.96424 10.5133C1.96424 10.5242 1.97197 10.5337 1.98263 10.5359C2.63425 10.6745 3.1145 10.9538 3.42339 11.3739C3.74764 11.7979 3.90977 12.3279 3.90977 12.964C3.90977 13.6873 3.85365 14.6227 3.74141 15.77C3.72893 15.982 3.70399 16.3375 3.66658 16.8363C3.62916 17.3352 3.61046 17.7343 3.61046 18.0336C3.61046 18.4327 3.70399 18.7195 3.89106 18.8941C4.0906 19.0812 4.38992 19.1747 4.789 19.1747H5.11211C5.38825 19.1747 5.61211 19.3986 5.61211 19.6747V20.5267C5.61211 20.8028 5.38825 21.0267 5.11211 21.0267H4.35874C3.51069 21.0267 2.82476 20.7773 2.30096 20.2784C1.78964 19.7796 1.53398 19.0874 1.53398 18.2019C1.53398 17.5285 1.5901 16.6305 1.70234 15.5081C1.80211 14.3109 1.852 13.4878 1.852 13.0388C1.852 12.5524 1.68987 12.1596 1.36561 11.8603C1.13616 11.64 0.829037 11.4839 0.444236 11.3919C0.19516 11.3324 0 11.1232 0 10.8671V10.1596Z" fill="white"/>
<path d="M22.8905 8.2498C22.7038 8.2498 22.5351 8.14429 22.4368 7.98564C22.1157 7.4676 21.698 7.06927 21.1837 6.79065C20.585 6.45392 19.8929 6.28556 19.1072 6.28556C18.2467 6.28556 17.4797 6.47887 16.8062 6.86548C16.1328 7.25209 15.6027 7.80083 15.2161 8.5117C14.842 9.22256 14.6549 10.0457 14.6549 10.981C14.6549 11.9164 14.842 12.7457 15.2161 13.4691C15.6027 14.1799 16.1328 14.7287 16.8062 15.1153C17.4797 15.5019 18.2467 15.6952 19.1072 15.6952C20.267 15.6952 21.2086 15.3709 21.9319 14.7224C22.5274 14.1886 22.9327 13.4984 23.1478 12.6519C23.2229 12.3564 22.9867 12.0847 22.6818 12.0847H18.8776C18.6015 12.0847 18.3776 11.8609 18.3776 11.5847V10.8824C18.3776 10.6063 18.6015 10.3824 18.8776 10.3824H25.0424C25.3185 10.3824 25.5424 10.6063 25.5424 10.8824V12.0473C25.4052 13.0575 25.0435 13.9866 24.4574 14.8347C23.8837 15.6827 23.1292 16.3624 22.1938 16.8737C21.271 17.3726 20.2421 17.622 19.1072 17.622C17.885 17.622 16.7688 17.3414 15.7586 16.7802C14.7484 16.2065 13.944 15.4146 13.3454 14.4044C12.7593 13.3942 12.4662 12.2531 12.4662 10.981C12.4662 9.70895 12.7593 8.56782 13.3454 7.55764C13.944 6.54746 14.7484 5.76176 15.7586 5.20055C16.7813 4.62687 17.8975 4.34003 19.1072 4.34003C20.4915 4.34003 21.7199 4.68299 22.7925 5.36892C23.6757 5.91715 24.3606 6.65548 24.8472 7.58389C25.0105 7.89557 24.7698 8.2498 24.4179 8.2498H22.8905Z" fill="white"/>
<path d="M29.5913 7.52508C29.5913 7.85315 30.0945 8.01756 30.3479 7.80917C30.4961 7.68722 30.6555 7.57843 30.826 7.48281C31.2231 7.25585 31.6741 7.11494 32.1788 7.06008C32.4534 7.03024 32.678 7.2577 32.678 7.53384V8.74127C32.678 9.01741 32.4541 9.24127 32.178 9.24127H32.1355C31.2999 9.24127 30.6638 9.45328 30.2273 9.87731C29.8033 10.3013 29.5913 11.0371 29.5913 12.0847V17.0098C29.5913 17.2859 29.3674 17.5098 29.0913 17.5098H27.9587C27.6826 17.5098 27.4587 17.2859 27.4587 17.0098V7.7022C27.4587 7.42606 27.6826 7.2022 27.9587 7.2022H29.2684C29.4467 7.2022 29.5913 7.34676 29.5913 7.52508Z" fill="white"/>
<path d="M36.8766 14.9875C36.6493 15.3193 36.8869 15.77 37.2891 15.77H40.5174C40.7935 15.77 41.0174 15.9939 41.0174 16.27V17.0098C41.0174 17.2859 40.7935 17.5098 40.5174 17.5098H34.3713C34.0951 17.5098 33.8713 17.2859 33.8713 17.0098V15.9253C33.8713 15.8242 33.902 15.7254 33.9593 15.642L38.0281 9.72527C38.2562 9.39352 38.0187 8.94196 37.6161 8.94196H34.3713C34.0951 8.94196 33.8713 8.7181 33.8713 8.44196V7.7022C33.8713 7.42606 34.0951 7.2022 34.3713 7.2022H40.5174C40.7935 7.2022 41.0174 7.42606 41.0174 7.7022V8.78714C41.0174 8.88799 40.9869 8.98648 40.9299 9.06968L36.8766 14.9875Z" fill="white"/>
<path d="M52.5166 12.1034C52.5166 12.3237 52.5085 12.5318 52.4923 12.7278C52.4721 12.9726 52.2611 13.151 52.0154 13.151H45.1054C44.8144 13.151 44.5805 13.4004 44.6456 13.684C44.7789 14.2645 45.058 14.7478 45.4828 15.134C46.0315 15.6328 46.705 15.8823 47.5031 15.8823C48.5367 15.8823 49.297 15.4927 49.784 14.7135C49.8849 14.5521 50.0555 14.4418 50.2459 14.4418H51.5452C51.8856 14.4418 52.126 14.7758 51.9746 15.0807C51.6441 15.7459 51.1638 16.3124 50.5337 16.7802C49.723 17.3788 48.7129 17.6781 47.5031 17.6781C46.5179 17.6781 45.6324 17.4599 44.8467 17.0234C44.0735 16.5744 43.4624 15.9509 43.0134 15.1527C42.577 14.3421 42.3587 13.4067 42.3587 12.3466C42.3587 11.2866 42.5707 10.3575 42.9947 9.55929C43.4312 8.74865 44.0361 8.12508 44.8093 7.68859C45.595 7.25209 46.493 7.03384 47.5031 7.03384C48.4759 7.03384 49.3427 7.24585 50.1034 7.66988C50.8642 8.09391 51.4566 8.69253 51.8806 9.46575C52.3046 10.2265 52.5166 11.1057 52.5166 12.1034ZM49.7825 11.43C50.0617 11.43 50.2925 11.1995 50.2416 10.9249C50.1387 10.3696 49.8743 9.90821 49.4487 9.54058C48.8999 9.06667 48.2202 8.82971 47.4096 8.82971C46.6738 8.82971 46.044 9.06667 45.5202 9.54058C45.1244 9.88928 44.8496 10.3341 44.6959 10.8751C44.6138 11.1644 44.8505 11.43 45.1512 11.43H49.7825Z" fill="white"/>
<path d="M58.5812 7.03384C59.3794 7.03384 60.084 7.19597 60.6951 7.52022C60.9342 7.63979 61.1532 7.77127 61.352 7.91468C61.6417 8.12374 62.1542 7.9297 62.1542 7.57237C62.1542 7.36793 62.32 7.2022 62.5244 7.2022H63.8056C64.0817 7.2022 64.3056 7.42606 64.3056 7.7022V17.6781C64.3056 18.626 64.106 19.4678 63.7069 20.2036C63.3078 20.9519 62.7279 21.538 61.9672 21.962C61.2189 22.3861 60.321 22.5981 59.2734 22.5981C57.8766 22.5981 56.7167 22.2676 55.7939 21.6066C55.0272 21.0679 54.536 20.3657 54.3201 19.4999C54.248 19.2108 54.4831 18.9502 54.7811 18.9502H55.9652C56.1856 18.9502 56.3745 19.0977 56.4727 19.295C56.6614 19.6741 56.9589 19.9895 57.3652 20.241C57.9015 20.5777 58.5376 20.7461 59.2734 20.7461C60.1339 20.7461 60.826 20.4842 61.3498 19.9604C61.8861 19.4366 62.1542 18.6758 62.1542 17.6781V17.4674C62.1542 16.9859 61.4518 16.7114 61.0474 16.9727C60.9293 17.0489 60.8057 17.1219 60.6764 17.1918C60.0653 17.516 59.3669 17.6781 58.5812 17.6781C57.6833 17.6781 56.8602 17.4537 56.1119 17.0047C55.3761 16.5432 54.7899 15.9072 54.3534 15.0966C53.9294 14.2735 53.7174 13.3443 53.7174 12.3092C53.7174 11.2741 53.9294 10.3575 54.3534 9.55929C54.7899 8.76112 55.3761 8.14379 56.1119 7.70729C56.8602 7.25833 57.6833 7.03384 58.5812 7.03384ZM62.1542 12.3466C62.1542 11.6358 62.0046 11.0184 61.7053 10.4946C61.4184 9.97084 61.0381 9.57176 60.5641 9.29739C60.0902 9.02302 59.5789 8.88584 59.0302 8.88584C58.4814 8.88584 57.9701 9.02302 57.4962 9.29739C57.0223 9.55929 56.6357 9.95214 56.3364 10.4759C56.0495 10.9873 55.9061 11.5984 55.9061 12.3092C55.9061 13.0201 56.0495 13.6437 56.3364 14.1799C56.6357 14.7162 57.0223 15.1277 57.4962 15.4146C57.9826 15.689 58.4939 15.8261 59.0302 15.8261C59.5789 15.8261 60.0902 15.689 60.5641 15.4146C61.0381 15.1402 61.4184 14.7411 61.7053 14.2173C62.0046 13.6811 62.1542 13.0575 62.1542 12.3466Z" fill="white"/>
<path d="M71.3905 17.6781C70.4178 17.6781 69.5386 17.4599 68.7529 17.0234C67.9672 16.5744 67.3498 15.9509 66.9009 15.1527C66.4519 14.3421 66.2274 13.4067 66.2274 12.3466C66.2274 11.299 66.4581 10.3699 66.9196 9.55929C67.381 8.74865 68.0108 8.12508 68.809 7.68859C69.6071 7.25209 70.4988 7.03384 71.4841 7.03384C72.4693 7.03384 73.361 7.25209 74.1592 7.68859C74.9574 8.12508 75.5872 8.74865 76.0486 9.55929C76.51 10.3699 76.7408 11.299 76.7408 12.3466C76.7408 13.3942 76.5038 14.3233 76.0299 15.134C75.556 15.9446 74.9075 16.5744 74.0844 17.0234C73.2737 17.4599 72.3758 17.6781 71.3905 17.6781ZM71.3905 15.8261C71.9393 15.8261 72.4506 15.6952 72.9245 15.4333C73.4109 15.1714 73.8038 14.7785 74.1031 14.2548C74.4024 13.731 74.552 13.0949 74.552 12.3466C74.552 11.5984 74.4086 10.9686 74.1218 10.4572C73.8349 9.93343 73.4546 9.54058 72.9806 9.27868C72.5067 9.01678 71.9954 8.88584 71.4467 8.88584C70.8979 8.88584 70.3866 9.01678 69.9127 9.27868C69.4512 9.54058 69.0834 9.93343 68.809 10.4572C68.5346 10.9686 68.3974 11.5984 68.3974 12.3466C68.3974 13.4566 68.678 14.3171 69.2392 14.9282C69.8129 15.5268 70.53 15.8261 71.3905 15.8261Z" fill="white"/>
<path d="M80.7945 7.52508C80.7945 7.85315 81.2977 8.01756 81.551 7.80917C81.6993 7.68722 81.8587 7.57843 82.0291 7.48281C82.4263 7.25585 82.8773 7.11494 83.382 7.06008C83.6565 7.03024 83.8811 7.2577 83.8811 7.53384V8.74127C83.8811 9.01741 83.6573 9.24127 83.3811 9.24127H83.3386C82.5031 9.24127 81.867 9.45328 81.4305 9.87731C81.0065 10.3013 80.7945 11.0371 80.7945 12.0847V17.0098C80.7945 17.2859 80.5706 17.5098 80.2945 17.5098H79.1619C78.8857 17.5098 78.6619 17.2859 78.6619 17.0098V7.7022C78.6619 7.42606 78.8857 7.2022 79.1619 7.2022H80.4716C80.6499 7.2022 80.7945 7.34676 80.7945 7.52508Z" fill="white"/>
<path d="M88.0798 14.9875C87.8525 15.3193 88.0901 15.77 88.4923 15.77H91.7205C91.9967 15.77 92.2205 15.9939 92.2205 16.27V17.0098C92.2205 17.2859 91.9967 17.5098 91.7205 17.5098H85.5744C85.2983 17.5098 85.0744 17.2859 85.0744 17.0098V15.9253C85.0744 15.8242 85.1051 15.7254 85.1625 15.642L89.2312 9.72527C89.4594 9.39352 89.2219 8.94196 88.8193 8.94196H85.5744C85.2983 8.94196 85.0744 8.7181 85.0744 8.44196V7.7022C85.0744 7.42606 85.2983 7.2022 85.5744 7.2022H91.7205C91.9967 7.2022 92.2205 7.42606 92.2205 7.7022V8.78714C92.2205 8.88799 92.19 8.98648 92.133 9.06968L88.0798 14.9875Z" fill="white"/>
<path d="M106.339 17.5098C106.193 17.5098 106.055 17.4467 105.96 17.3369L101.956 12.7072C101.653 12.3569 101.078 12.5712 101.078 13.0343V17.0098C101.078 17.2859 100.854 17.5098 100.578 17.5098H99.4451C99.169 17.5098 98.9451 17.2859 98.9451 17.0098V5.00839C98.9451 4.73225 99.169 4.50839 99.4451 4.50839H100.578C100.854 4.50839 101.078 4.73225 101.078 5.00839V9.08037C101.078 9.54535 101.657 9.75856 101.958 9.40458L105.979 4.68418C106.074 4.57265 106.213 4.50839 106.36 4.50839H107.708C108.136 4.50839 108.366 5.01239 108.085 5.3361L103.441 10.6875C103.277 10.8769 103.278 11.1588 103.445 11.3466L108.162 16.6785C108.447 17.0012 108.218 17.5098 107.787 17.5098H106.339Z" fill="white"/>
<path d="M115.067 17.6781C114.094 17.6781 113.215 17.4599 112.429 17.0234C111.644 16.5744 111.026 15.9509 110.577 15.1527C110.128 14.3421 109.904 13.4067 109.904 12.3466C109.904 11.299 110.135 10.3699 110.596 9.55929C111.058 8.74865 111.687 8.12508 112.486 7.68859C113.284 7.25209 114.175 7.03384 115.161 7.03384C116.146 7.03384 117.038 7.25209 117.836 7.68859C118.634 8.12508 119.264 8.74865 119.725 9.55929C120.187 10.3699 120.417 11.299 120.417 12.3466C120.417 13.3942 120.18 14.3233 119.706 15.134C119.233 15.9446 118.584 16.5744 117.761 17.0234C116.95 17.4599 116.052 17.6781 115.067 17.6781ZM115.067 15.8261C115.616 15.8261 116.127 15.6952 116.601 15.4333C117.087 15.1714 117.48 14.7785 117.78 14.2548C118.079 13.731 118.229 13.0949 118.229 12.3466C118.229 11.5984 118.085 10.9686 117.798 10.4572C117.511 9.93343 117.131 9.54058 116.657 9.27868C116.183 9.01678 115.672 8.88584 115.123 8.88584C114.574 8.88584 114.063 9.01678 113.589 9.27868C113.128 9.54058 112.76 9.93343 112.486 10.4572C112.211 10.9686 112.074 11.5984 112.074 12.3466C112.074 13.4566 112.355 14.3171 112.916 14.9282C113.489 15.5268 114.207 15.8261 115.067 15.8261Z" fill="white"/>
<path d="M121.628 12.3466C121.628 11.2866 121.84 10.3575 122.264 9.55929C122.7 8.74865 123.299 8.12508 124.059 7.68859C124.82 7.25209 125.693 7.03384 126.678 7.03384C127.926 7.03384 128.954 7.33315 129.765 7.93178C130.427 8.40308 130.915 9.03967 131.231 9.84155C131.35 10.1464 131.11 10.4572 130.783 10.4572H129.479C129.269 10.4572 129.085 10.3238 128.99 10.1369C128.805 9.77622 128.552 9.4839 128.231 9.25998C127.82 8.97314 127.302 8.82971 126.678 8.82971C125.805 8.82971 125.107 9.1415 124.583 9.76507C124.072 10.3762 123.816 11.2367 123.816 12.3466C123.816 13.4566 124.072 14.3233 124.583 14.9469C125.107 15.5705 125.805 15.8823 126.678 15.8823C127.785 15.8823 128.556 15.4466 128.991 14.5752C129.085 14.3878 129.268 14.2548 129.478 14.2548H130.767C131.099 14.2548 131.34 14.5739 131.21 14.8796C130.886 15.64 130.399 16.2673 129.746 16.7615C128.923 17.3726 127.901 17.6781 126.678 17.6781C125.693 17.6781 124.82 17.4599 124.059 17.0234C123.299 16.5744 122.7 15.9509 122.264 15.1527C121.84 14.3421 121.628 13.4067 121.628 12.3466Z" fill="white"/>
<path d="M134.453 5.83659C134.067 5.83659 133.742 5.70564 133.48 5.44374C133.219 5.18185 133.088 4.85759 133.088 4.47098C133.088 4.08437 133.219 3.76011 133.48 3.49821C133.742 3.23632 134.067 3.10537 134.453 3.10537C134.827 3.10537 135.145 3.23632 135.407 3.49821C135.669 3.76011 135.8 4.08437 135.8 4.47098C135.8 4.85759 135.669 5.18185 135.407 5.44374C135.145 5.70564 134.827 5.83659 134.453 5.83659ZM135.001 7.2022C135.277 7.2022 135.501 7.42606 135.501 7.7022V17.0098C135.501 17.2859 135.277 17.5098 135.001 17.5098H133.868C133.592 17.5098 133.368 17.2859 133.368 17.0098V7.7022C133.368 7.42606 133.592 7.2022 133.868 7.2022H135.001Z" fill="white"/>
<path d="M142.504 12.0261C142.328 12.2178 142.328 12.5127 142.505 12.704L146.168 16.6705C146.464 16.9908 146.237 17.5098 145.801 17.5098H144.292C144.146 17.5098 144.008 17.4463 143.913 17.336L141.125 14.0973C140.823 13.7459 140.246 13.9598 140.246 14.4235V17.0098C140.246 17.2859 140.022 17.5098 139.746 17.5098H138.614C138.338 17.5098 138.114 17.2859 138.114 17.0098V4.16658C138.114 3.89043 138.338 3.66658 138.614 3.66658H139.746C140.022 3.66658 140.246 3.89043 140.246 4.16658V10.3251C140.246 10.7933 140.832 11.0047 141.131 10.6445L143.838 7.3829C143.933 7.26843 144.074 7.2022 144.223 7.2022H145.804C146.239 7.2022 146.467 7.72032 146.172 8.04079L142.504 12.0261Z" fill="white"/>
<path d="M158.85 10.8671C158.85 11.1232 158.655 11.3326 158.406 11.3916C158.018 11.4835 157.705 11.6397 157.466 11.8603C157.154 12.1596 156.998 12.5524 156.998 13.0388C156.998 13.4878 157.048 14.3109 157.148 15.5081C157.26 16.6305 157.316 17.5285 157.316 18.2019C157.316 19.0874 157.054 19.7796 156.53 20.2784C156.019 20.7773 155.339 21.0267 154.491 21.0267H153.738C153.462 21.0267 153.238 20.8028 153.238 20.5267V19.6747C153.238 19.3986 153.462 19.1747 153.738 19.1747H154.061C154.46 19.1747 154.753 19.0812 154.94 18.8941C155.14 18.7195 155.24 18.4327 155.24 18.0336C155.24 17.7343 155.221 17.3352 155.183 16.8363C155.146 16.3375 155.121 15.982 155.109 15.77C154.996 14.6227 154.94 13.6873 154.94 12.964C154.94 12.3279 155.096 11.7979 155.408 11.3739C155.729 10.9538 156.216 10.6745 156.867 10.5359C156.878 10.5337 156.886 10.5242 156.886 10.5133C156.886 10.5025 156.878 10.493 156.867 10.4908C156.216 10.3522 155.729 10.0729 155.408 9.65282C155.096 9.2288 154.94 8.69877 154.94 8.06273C154.94 7.33939 154.996 6.40404 155.109 5.25667C155.121 5.04466 155.146 4.68923 155.183 4.19037C155.221 3.69152 155.24 3.29244 155.24 2.99312C155.24 2.59404 155.14 2.3072 154.94 2.1326C154.753 1.94553 154.46 1.852 154.061 1.852H153.738C153.462 1.852 153.238 1.62814 153.238 1.352V0.5C153.238 0.223857 153.462 0 153.738 0H154.491C155.339 0 156.019 0.249427 156.53 0.748281C157.054 1.24713 157.316 1.93929 157.316 2.82476C157.316 3.49821 157.26 4.39615 157.148 5.51857C157.048 6.71582 156.998 7.53893 156.998 7.9879C156.998 8.47428 157.154 8.86713 157.466 9.16644C157.705 9.38695 158.018 9.54316 158.406 9.63506C158.655 9.69411 158.85 9.90348 158.85 10.1596V10.8671Z" fill="white"/>
</svg>
